<?xml version="1.0" encoding="UTF-8" standalone="no"?>
<!-- Created with Inkscape (http://www.inkscape.org/) -->

<svg
   xmlns:dc="http://purl.org/dc/elements/1.1/"
   xmlns:cc="http://creativecommons.org/ns#"
   xmlns:rdf="http://www.w3.org/1999/02/22-rdf-syntax-ns#"
   xmlns:svg="http://www.w3.org/2000/svg"
   xmlns="http://www.w3.org/2000/svg"
   xmlns:sodipodi="http://sodipodi.sourceforge.net/DTD/sodipodi-0.dtd"
   xmlns:inkscape="http://www.inkscape.org/namespaces/inkscape"
   width="256px"
   height="256px"
   viewBox="0 0 256 256"
   version="1.1"
   id="SVGRoot"
   inkscape:version="0.92.2 (5c3e80d, 2017-08-06)"
   sodipodi:docname="bill.svg">
  <sodipodi:namedview
     id="base"
     pagecolor="#ffffff"
     bordercolor="#666666"
     borderopacity="1.0"
     inkscape:pageopacity="0.0"
     inkscape:pageshadow="2"
     inkscape:zoom="1"
     inkscape:cx="128"
     inkscape:cy="128"
     inkscape:document-units="px"
     inkscape:current-layer="layer1"
     showgrid="false"
     inkscape:window-width="1920"
     inkscape:window-height="1017"
     inkscape:window-x="-8"
     inkscape:window-y="35"
     inkscape:window-maximized="1"
     inkscape:grid-bbox="true" />
  <defs
     id="defs25" />
  <metadata
     id="metadata28">
    <rdf:RDF>
      <cc:Work
         rdf:about="">
        <dc:format>image/svg+xml</dc:format>
        <dc:type
           rdf:resource="http://purl.org/dc/dcmitype/StillImage" />
        <dc:title></dc:title>
      </cc:Work>
    </rdf:RDF>
  </metadata>
  <g
     id="layer1"
     inkscape:groupmode="layer"
     inkscape:label="Layer 1">
    <g
       style="display:block"
       id="g382"
       transform="matrix(0.54291439,0,0,0.54291439,17.90045,23.873979)">
      <g
         id="svgg-2">
        <path
           d="m 333.022,5.228 c 0.065,12.575 11.657,21.561 23.978,18.587 8.466,-2.042 15.946,-12.093 14.837,-19.934 L 371.5,1.5 352.25,1.228 333,0.957 333.022,5.228 M 67.405,15.104 c -1.814,2.003 -1.929,4.844 -2.405,59.347 -0.41,46.996 -0.75,57.545 -1.897,58.926 -0.769,0.926 -5.667,4.932 -10.886,8.903 -5.219,3.971 -10.945,8.345 -12.724,9.72 -10.821,8.364 -19.144,14.749 -21.4,16.417 -1.426,1.054 -4.28,3.508 -6.343,5.453 L 8,177.406 v 107.258 107.258 l 2.175,2.027 c 1.197,1.114 3.559,2.274 5.25,2.577 7.08,1.268 370.015,0.008 372.29,-1.292 4.35,-2.488 4.393,-3.687 4.082,-113.419 l -0.297,-104.684 -3,-3.138 c -1.65,-1.726 -6.6,-5.825 -11,-9.11 -9.853,-7.355 -15.847,-11.942 -23.837,-18.244 -3.39,-2.673 -7.962,-6.273 -10.16,-8 -2.198,-1.726 -5.236,-4.342 -6.75,-5.812 L 334,130.154 V 73.765 C 334,18.4 333.963,17.337 331.961,15.189 L 329.922,13 H 199.616 69.31 l -1.905,2.104 m 251.677,86.646 c 0.1,88.548 -0.018,109.306 -0.634,111.342 -0.266,0.875 -6.212,5.375 -13.215,10 -7.003,4.624 -12.883,8.746 -13.066,9.158 -0.184,0.412 -0.723,0.75 -1.2,0.75 -0.692,0 -23.452,14.693 -27.476,17.737 -0.555,0.419 -8.655,5.896 -18,12.169 -9.345,6.273 -23.155,15.61 -30.689,20.75 -7.534,5.139 -14.163,9.344 -14.732,9.344 -0.569,0 -16.587,-10.462 -35.596,-23.25 -19.008,-12.788 -35.306,-23.7 -36.217,-24.25 -0.911,-0.55 -9.03,-5.95 -18.042,-12 -9.012,-6.05 -18.035,-12.067 -20.05,-13.372 -2.016,-1.305 -4.902,-3.526 -6.415,-4.937 L 81,212.626 V 121.313 30 h 119 119 l 0.082,71.75 M 115.033,95.25 115,115 h 2.968 2.969 l 0.281,-11.324 0.282,-11.323 10.5,11.336 10.5,11.336 0.765,-3.263 C 145.101,103.937 142.972,77 140.517,77 c -2.684,0 -3.489,3.385 -3.506,14.755 L 137,99.009 128.102,89.755 C 123.209,84.665 118.274,79.375 117.136,78 l -2.069,-2.5 -0.034,19.75 m 80.76,-17.886 c -18.163,8.06 -16.49,32.208 2.595,37.477 11.767,3.249 25.458,-10.089 23.147,-22.551 -2.137,-11.521 -15.697,-19.384 -25.742,-14.926 m 54.948,0.922 c -12.278,7.433 -13.585,22.891 -2.671,31.581 9.124,7.264 20.93,6.717 20.93,-0.97 v -3.948 l -2.95,1.525 c -9.638,4.984 -19.157,-1.565 -18.581,-12.782 0.461,-8.988 9.896,-14.358 17.895,-10.186 3.755,1.958 3.636,2.023 3.636,-1.971 0,-6.015 -10.58,-7.898 -18.259,-3.249 M 275,95.352 V 115 H 286.5 298 V 111.5 108 H 289.5 281 V 103.5 99 h 7.5 7.5 v -3 -3 h -7.555 -7.555 l 0.305,-4.75 0.305,-4.75 8.25,-0.29 8.25,-0.291 V 79.96 c 0,-2.672 -0.317,-2.961 -3.25,-2.966 -1.788,-0.003 -6.962,-0.295 -11.5,-0.648 L 275,75.704 v 19.648 m -174.772,0.398 0.272,18.75 3.25,0.313 3.25,0.314 V 96.063 77 h -3.522 -3.522 l 0.272,18.75 m 49.287,-16 c 1.344,2.714 5.666,12.28 5.987,13.25 0.553,1.672 2.956,7.225 5.063,11.701 1.346,2.861 2.883,6.348 3.416,7.75 1.379,3.627 2.257,3.191 4.434,-2.205 1.053,-2.61 3.572,-8.346 5.597,-12.746 2.025,-4.4 4.493,-10.152 5.483,-12.783 0.991,-2.63 2.185,-5.019 2.653,-5.309 2.158,-1.333 0.477,-2.495 -3.206,-2.215 l -4.059,0.307 -3.95,9 c -2.173,4.95 -4.352,9.9 -4.841,11 -0.802,1.8 -1.054,1.62 -2.525,-1.799 -0.899,-2.089 -2.969,-6.713 -4.601,-10.275 C 157.335,81.864 156,78.511 156,77.975 156,77.439 154.234,77 152.077,77 h -3.924 l 1.362,2.75 M 228,96 v 19 h 3.5 3.5 V 96 77 H 231.5 228 V 96 M 209.964,84.974 c 8.435,6.006 5.786,20.87 -4.087,22.932 -11.093,2.317 -19.285,-6.08 -15.909,-16.308 2.622,-7.945 13.213,-11.453 19.996,-6.624 M 65,178.502 v 24.502 l -4.311,-2.752 C 48.441,192.433 31,180.489 31,179.919 c 0,-0.356 1.528,-1.722 3.396,-3.034 3.206,-2.251 14.343,-10.906 24.521,-19.054 2.521,-2.018 4.92,-3.706 5.333,-3.75 0.412,-0.045 0.75,10.945 0.75,24.421 M 344.004,160.25 c 8.239,6.546 20.087,15.698 23.494,18.149 1.1,0.791 1.775,1.659 1.5,1.929 -0.604,0.597 -24.991,16.975 -30.248,20.315 l -3.75,2.382 v -24.512 c 0,-13.482 0.256,-24.513 0.569,-24.513 0.312,0 4.108,2.813 8.435,6.25 M 125,170.5 v 7.5 h 75 75 v -7.5 -7.5 h -75 -75 v 7.5 m 251.528,121.764 c 0.263,75.702 0.112,86.953 -1.185,88.25 C 373.342,382.515 28.198,382.798 26.2,380.8 24.749,379.349 24.43,197 25.879,197 c 0.877,0 50.615,33.105 124.837,83.09 44.377,29.886 48.31,32.231 51.83,30.893 2.173,-0.827 54.794,-35.855 107.454,-71.53 11.275,-7.639 30.4,-20.502 42.5,-28.586 l 22,-14.699 0.864,4.666 c 0.475,2.566 0.999,43.71 1.164,91.43 M 125,220.5 v 7.5 h 75 75 v -7.5 -7.5 h -75 -75 v 7.5 M 393.32,393 c 0,3.575 0.182,5.038 0.403,3.25 0.222,-1.788 0.222,-4.712 0,-6.5 -0.221,-1.788 -0.403,-0.325 -0.403,3.25"
           id="path0-7"
           inkscape:connector-curvature="0"
           style="fill:#000000;fill-rule:evenodd;stroke:none" />
      </g>
    </g>
    <rect
       id="rect384"
       width="50.32497"
       height="11.536949"
       x="195.43127"
       y="18.560734"
       style="fill:#ffffff;stroke-width:1.11391234" />
    <rect
       style="fill:#ffffff;stroke-width:1.11391234"
       id="rect403"
       width="24.267382"
       height="38.986938"
       x="202.79099"
       y="23.135735" />
    <rect
       style="fill:#ffffff;stroke-width:1.11391234"
       id="rect405"
       width="6.5889916"
       height="2.6604607"
       x="197.76846"
       y="28.531239" />
    <rect
       style="fill:#ffffff;stroke-width:1.11391234"
       id="rect407"
       width="3.6052969"
       height="5.1220078"
       x="200.42892"
       y="30.371197" />
    <rect
       style="fill:#ffffff;stroke-width:1.11391234"
       id="rect412"
       width="3.2323351"
       height="2.163178"
       x="199.50896"
       y="30.818745" />
    <rect
       id="rect384-8"
       width="117.16695"
       height="31.896242"
       x="67.585487"
       y="59.054436"
       style="fill:#ffffff;stroke-width:2.82609057" />
    <text
       xml:space="preserve"
       style="font-style:normal;font-weight:normal;font-size:44.55649948px;line-height:1.25;font-family:sans-serif;letter-spacing:0px;word-spacing:0px;fill:#000000;fill-opacity:1;stroke:none;stroke-width:1.11391234"
       x="88.179588"
       y="93.304497"
       id="text416-4"><tspan
         sodipodi:role="line"
         id="tspan414-6"
         x="88.179588"
         y="93.304497"
         style="font-style:normal;font-variant:normal;font-weight:normal;font-stretch:normal;font-size:53.46780014px;font-family:'Britannic Bold';-inkscape-font-specification:'Britannic Bold, ';stroke-width:1.11391234">Bill</tspan></text>
  </g>
</svg>
