<?xml version="1.0" encoding="UTF-8" standalone="no"?>
<!-- Created with Inkscape (http://www.inkscape.org/) -->

<svg
   xmlns:osb="http://www.openswatchbook.org/uri/2009/osb"
   xmlns:dc="http://purl.org/dc/elements/1.1/"
   xmlns:cc="http://creativecommons.org/ns#"
   xmlns:rdf="http://www.w3.org/1999/02/22-rdf-syntax-ns#"
   xmlns:svg="http://www.w3.org/2000/svg"
   xmlns="http://www.w3.org/2000/svg"
   xmlns:sodipodi="http://sodipodi.sourceforge.net/DTD/sodipodi-0.dtd"
   xmlns:inkscape="http://www.inkscape.org/namespaces/inkscape"
   width="256px"
   height="256px"
   viewBox="0 0 256 256"
   version="1.1"
   id="SVGRoot"
   inkscape:version="0.92.2 (5c3e80d, 2017-08-06)"
   sodipodi:docname="renewable_energy.svg">
  <sodipodi:namedview
     id="base"
     pagecolor="#ffffff"
     bordercolor="#666666"
     borderopacity="1.0"
     inkscape:pageopacity="0.0"
     inkscape:pageshadow="2"
     inkscape:zoom="5.6568542"
     inkscape:cx="17.677265"
     inkscape:cy="109.25035"
     inkscape:document-units="px"
     inkscape:current-layer="layer1"
     showgrid="false"
     inkscape:window-width="1600"
     inkscape:window-height="837"
     inkscape:window-x="1912"
     inkscape:window-y="-8"
     inkscape:window-maximized="1"
     inkscape:grid-bbox="true" />
  <defs
     id="defs25">
    <linearGradient
       id="linearGradient4601"
       osb:paint="solid">
      <stop
         style="stop-color:#000000;stop-opacity:1;"
         offset="0"
         id="stop4599" />
    </linearGradient>
  </defs>
  <metadata
     id="metadata28">
    <rdf:RDF>
      <cc:Work
         rdf:about="">
        <dc:format>image/svg+xml</dc:format>
        <dc:type
           rdf:resource="http://purl.org/dc/dcmitype/StillImage" />
        <dc:title />
      </cc:Work>
    </rdf:RDF>
  </metadata>
  <g
     id="layer1"
     inkscape:groupmode="layer"
     inkscape:label="Layer 1">
    <g
       style="display:block"
       id="g51"
       transform="matrix(0.67590666,0,0,0.67590666,-11.047007,2.0915947)">
      <g
         id="svgg">
        <path
           d="M 113,30.5 V 45 h 4.5 4.5 V 30.5 16 h -4.5 -4.5 v 14.5 m -57.786,9.779 -3.184,3.285 10.77,10.737 10.771,10.737 3.315,-3.42 3.315,-3.42 -7.495,-7.349 C 68.585,46.807 63.679,42.036 61.805,40.247 l -3.407,-3.253 -3.184,3.285 M 164,48.5 l -9.464,9.503 3.5,3.5 3.5,3.5 9.464,-9.503 9.464,-9.503 -3.5,-3.5 -3.5,-3.5 L 164,48.5 m -54.933,6.635 c -43.827,7.27 -53.512,69.377 -13.944,89.427 48.078,24.363 93.42,-35.839 56.621,-75.177 -11.066,-11.829 -26.402,-16.95 -42.677,-14.25 m -77.4,42.532 C 31.3,98.033 31,100.283 31,102.667 V 107 H 45.5 60 v -5 -5 H 46.167 c -7.609,0 -14.134,0.3 -14.5,0.667 M 175,101.973 V 107 h 14.555 14.555 L 203.805,102.25 203.5,97.5 189.25,97.223 175,96.945 v 5.028 m -112.829,48.641 -10.327,10.614 2.765,2.886 c 3.854,4.023 3.736,4.081 15.33,-7.553 l 10.403,-10.439 -3.277,-3.061 c -4.266,-3.985 -3.088,-4.582 -14.894,7.553 m 95.301,-7.585 -2.901,3.029 9.688,9.688 9.688,9.688 3.2,-3.274 3.201,-3.273 -9.404,-9.444 c -10.801,-10.845 -9.72,-10.33 -13.472,-6.414 M 113,174 v 14 h 4.5 4.5 v -14 -14 h -4.5 -4.5 v 14 m 45.5,55 -16.978,17 H 170 198.478 l 16.261,-16.239 C 223.683,220.83 231,213.18 231,212.761 231,212.343 218.508,212 203.239,212 H 175.478 L 158.5,229 m 72,0 -16.978,17 H 242 270.478 l 16.261,-16.239 C 295.683,220.83 303,213.18 303,212.761 303,212.343 290.508,212 275.239,212 H 247.478 L 230.5,229 m 71.435,-0.25 -16.382,16.75 28.223,0.266 28.224,0.265 v 4.724 4.723 L 359,238.5 376,221.522 V 216.761 212 h -28.842 -28.842 l -16.381,16.75 M 113.24,274.259 94,293.519 v 4.74 4.741 h 28.5 28.5 v -4.76 -4.76 L 169.5,275 C 179.675,264.836 188,256.178 188,255.76 188,255.342 175.508,255 160.24,255 h -27.759 l -19.241,19.259 m 71.393,0.374 C 165.117,294.149 165,294.292 165,298.633 V 303 h 29 29 v -4.76 -4.76 L 241.5,275 C 251.675,264.836 260,256.178 260,255.76 260,255.342 247.46,255 232.133,255 h -27.867 l -19.633,19.633 M 255.74,274.76 237,293.519 v 4.741 4.74 h 28.922 28.921 l 19.075,-19.25 c 18.749,-18.921 19.075,-19.323 19.079,-23.5 L 333,256 h -29.26 -29.26 l -18.74,18.76 M 213,337 v 24 H 227.5 242 V 337 313 H 227.5 213 v 24"
           id="path0"
           inkscape:connector-curvature="0"
           style="fill:#000000;fill-rule:evenodd;stroke:none" />
      </g>
    </g>
    <path
       style="fill:#ffff00"
       d="M 63.650487,102.45535 C 47.282214,100.03184 36.205811,86.457403 37.249314,70.1 37.86421,60.461207 40.970216,53.74185 47.620255,47.664088 c 6.942085,-6.344674 13.12166,-8.474895 22.758783,-7.8454 8.840958,0.577489 14.46878,3.268441 20.822213,9.956174 6.421791,6.759687 9.149049,14.121388 8.534192,23.036428 -1.300629,18.85846 -17.736623,32.36075 -36.084956,29.64406 z"
       id="path10"
       inkscape:connector-curvature="0" />
    <path
       style="fill:#ffff00;stroke-width:0.125"
       d="m 65.385714,119.72183 v -9.375 h 3 3 v 9.375 9.375 h -3 -3 z"
       id="path12"
       inkscape:connector-curvature="0" />
    <path
       style="fill:#ffff00;stroke-width:0.125"
       d="m 99.986487,107.25308 -6.460826,-6.46875 1.711276,-1.77298 c 1.12778,-1.168448 1.833742,-1.803054 2.070441,-1.86117 0.895731,-0.219926 2.066047,0.795375 8.735802,7.5787 l 4.71997,4.80034 -2.09359,2.09631 c -1.15147,1.15297 -2.12254,2.0963 -2.15792,2.0963 -0.0354,0 -2.9717,-2.91093 -6.525153,-6.46875 z"
       id="path14"
       inkscape:connector-curvature="0" />
    <path
       style="fill:#ffff00;stroke-width:0.125"
       d="m 107.26071,71.034335 v -3.3125 l 1.03125,-0.0023 c 2.21725,-0.0049 16.45637,0.265389 17.29268,0.328258 l 0.88642,0.06664 0.15177,2.772443 c 0.0835,1.524843 0.18124,2.92713 0.21726,3.116193 l 0.0655,0.34375 h -9.82243 -9.82244 z"
       id="path16"
       inkscape:connector-curvature="0" />
    <path
       style="fill:#ffff00;stroke-width:0.125"
       d="m 27.448214,114.36686 c -0.20625,-0.13402 -1.047111,-0.92259 -1.86858,-1.75237 l -1.493581,-1.5087 0.865079,-0.91073 c 2.160279,-2.27427 10.709567,-10.980571 11.477192,-11.687976 1.176771,-1.084452 1.84043,-1.460014 2.395869,-1.355813 0.432457,0.08113 0.914547,0.482495 3.357796,2.795542 l 0.983775,0.931347 -5.171275,5.18372 c -5.488579,5.50178 -7.390789,7.30467 -8.446958,8.00593 -0.81817,0.54323 -1.560745,0.64901 -2.099317,0.29905 z"
       id="path18"
       inkscape:connector-curvature="0" />
    <path
       style="fill:#ffff00;stroke-width:0.125"
       d="m 10.022767,71.940585 c 0.0066,-1.323438 0.07694,-2.712041 0.15625,-3.085786 0.126847,-0.597775 0.188704,-0.691315 0.514103,-0.777435 0.802023,-0.212262 5.672264,-0.355529 12.08592,-0.355529 h 6.731674 v 3.3125 3.3125 h -9.75 -9.75 z"
       id="path20"
       inkscape:connector-curvature="0" />
    <path
       style="fill:#ffff00;stroke-width:0.125"
       d="m 31.456042,38.729664 -7.230807,-7.231613 2.112102,-2.149501 2.112102,-2.149501 2.311887,2.223819 c 4.953108,4.764424 12.256418,11.964522 12.222537,12.049804 -0.01961,0.04935 -0.994456,1.079477 -2.166331,2.289168 l -2.130683,2.199437 z"
       id="path22"
       inkscape:connector-curvature="0" />
    <path
       style="fill:#ffff00;stroke-width:0.125"
       d="m 71.445227,22.721835 c 0,-5.396875 0.01539,-7.604688 0.03419,-4.90625 0.01881,2.698437 0.01881,7.114062 0,9.8125 -0.01881,2.698437 -0.03419,0.490625 -0.03419,-4.90625 z"
       id="path24"
       inkscape:connector-curvature="0" />
    <path
       style="fill:#ffff00;stroke-width:0.125"
       d="m 95.791084,43.564739 -2.279596,-2.282098 6.344225,-6.343309 6.344227,-6.34331 2.31077,2.313308 2.31077,2.313308 -6.31117,6.312099 c -3.47114,3.471654 -6.340072,6.312098 -6.375399,6.312098 -0.03533,0 -1.090049,-1.026944 -2.343827,-2.282096 z"
       id="path26"
       inkscape:connector-curvature="0" />
    <path
       style="fill:#ffff00;stroke-width:0.125"
       d="m 65.385714,22.721835 v -9.75 h 3 3 v 9.75 9.75 h -3 -3 z"
       id="path28"
       inkscape:connector-curvature="0" />
    <path
       style="fill:#ffff00;stroke-width:0.02209709"
       d="m 96.869408,57.627403 c -0.01684,-0.02735 -0.111712,-0.206839 -0.210839,-0.398875 -0.854391,-1.655186 -2.110626,-3.543739 -3.456634,-5.19651 -1.727884,-2.121676 -4.053249,-4.446806 -6.091949,-6.091334 -4.877611,-3.934552 -9.836368,-5.723471 -17.047902,-6.150196 -1.363291,-0.08067 -3.245786,-0.105042 -4.331029,-0.05607 -4.64931,0.20979 -8.312625,1.223823 -11.954047,3.308971 -2.101823,1.203544 -4.333663,2.895113 -6.502545,4.928449 l -0.292787,0.274489 v -0.661841 -0.66184 l 0.34803,-0.309051 c 2.503368,-2.222995 5.302236,-3.980141 8.381695,-5.262079 3.863327,-1.608252 8.237161,-2.456259 12.671304,-2.456735 5.770118,-6.19e-4 11.281317,1.50747 16.108777,4.408017 2.93404,1.762899 5.517963,3.946689 7.922411,6.695589 1.840104,2.103709 3.424036,4.409016 4.683796,6.816951 0.214321,0.409662 0.420025,0.827815 0.420025,0.853828 0,0.0044 -0.138981,0.008 -0.308848,0.008 -0.29649,0 -0.310076,-0.002 -0.339458,-0.04972 z"
       id="path30"
       inkscape:connector-curvature="0" />
    <path
       style="fill:#ffff00;stroke-width:0.02209709"
       d="m 36.743042,76.513011 c -0.122692,-0.88018 -0.203315,-1.687923 -0.274044,-2.745563 -0.0486,-0.726811 -0.05569,-3.147986 -0.01128,-3.855942 0.134316,-2.141326 0.380648,-3.937294 0.791038,-5.767339 0.906387,-4.041838 2.401559,-7.658907 4.573938,-11.065117 l 0.28538,-0.447466 h 0.481751 c 0.388481,0 0.47833,0.0055 0.464081,0.02859 -0.0097,0.01573 -0.127776,0.182282 -0.262349,0.370127 -3.322941,4.638366 -5.091628,10.052046 -5.544083,16.969594 -0.104568,1.598733 -0.101166,3.003385 0.01105,4.563048 0.05563,0.773217 0.197985,2.075873 0.254153,2.325719 l 0.01118,0.04972 H 37.163098 36.80234 Z"
       id="path32"
       inkscape:connector-curvature="0" />
    <path
       style="fill:#ffff00;stroke-width:0.04419417"
       d="M 53.463566,99.878406 C 49.523522,97.901525 46.294765,95.380154 43.608192,92.182235 40.12462,88.035622 37.814749,82.936699 36.876309,77.321944 l -0.06094,-0.364602 h 0.347049 c 0.190878,0 0.34705,0.0055 0.34705,0.01217 0,0.0067 0.05003,0.300029 0.111185,0.651864 1.552832,8.93415 6.792117,16.436697 14.627572,20.94638 0.760415,0.437656 2.361742,1.242563 3.115689,1.566094 l 0.464039,0.19913 h -0.729204 l -0.729204,-1e-5 z"
       id="path34"
       inkscape:connector-curvature="0" />
    <path
       style="fill:#ffff00;stroke-width:0.04419417"
       d="m 67.671993,103.57631 c -3.398293,-0.0894 -7.011252,-0.79723 -10.352318,-2.02825 -0.772483,-0.28463 -2.056049,-0.81093 -2.618673,-1.07375 l -0.287262,-0.13419 0.713817,-0.002 0.713817,-0.002 0.634105,0.24729 c 2.448479,0.95488 5.195003,1.64718 7.859853,1.98119 2.326325,0.29158 4.967114,0.32403 7.225748,0.0888 4.985275,-0.51922 9.711595,-2.21345 13.921165,-4.99027 6.174937,-4.073271 10.73424,-10.229809 12.927989,-17.456981 l 0.214779,-0.707572 0.0025,1.164708 0.0025,1.164708 -0.2277,0.580962 c -1.744549,4.450999 -4.353566,8.430615 -7.725696,11.784185 -5.347046,5.317618 -12.141244,8.56834 -19.349304,9.25779 -0.714707,0.0684 -2.634757,0.16087 -3.014543,0.14525 -0.109381,-0.004 -0.397748,-0.0134 -0.640815,-0.0198 z"
       id="path36"
       inkscape:connector-curvature="0" />
    <path
       style="fill:#ffff00;stroke-width:0.08838835"
       d="m 98.693105,80.481039 c -0.02399,-0.755015 0.007,-1.17561 0.120383,-1.635184 1.142649,-4.630534 1.341702,-9.655847 0.551172,-13.914844 -0.374878,-2.019662 -1.091174,-4.307457 -1.942428,-6.203976 l -0.471379,-1.05019 0.280455,0.0023 c 0.265215,0.0021 0.29821,0.04177 0.607208,0.729204 1.264003,2.812063 2.09163,5.759648 2.515114,8.95753 0.18546,1.400506 0.215,5.452309 0.0495,6.795427 -0.28011,2.27378 -0.800571,4.679362 -1.415128,6.540738 l -0.262643,0.795495 z"
       id="path38"
       inkscape:connector-curvature="0" />
    <path
       style="fill:#ffff00;stroke-width:0.0625"
       d="m 42.520731,52.071095 c 1.027301,-1.473984 2.010449,-2.649784 3.383224,-4.046178 l 1.075935,-1.094447 0.0017,0.625 0.0017,0.625 -0.851127,0.875 c -0.940552,0.966934 -2.118943,2.310171 -2.676312,3.050703 l -0.361689,0.480547 h -0.46638 -0.46638 z"
       id="path40"
       inkscape:connector-curvature="0" />
    <path
       style="fill:#008000;stroke-width:0.5"
       d="m 100.58904,204.82583 c 0,-0.9446 0.23462,-2.33454 0.52137,-3.08876 0.28676,-0.75423 6.29225,-7.18137 13.34554,-14.28255 l 12.82417,-12.91124 14.27946,0.0496 c 7.8537,0.0273 16.19196,0.19604 18.52946,0.375 l 4.25,0.32537 -12.375,12.55078 -12.375,12.55078 v 3.07422 3.07422 h -19.5 -19.5 z"
       id="path42"
       inkscape:connector-curvature="0" />
    <path
       style="fill:#008000;stroke-width:0.5"
       d="m 149.58904,203.41453 v -3.12875 l 12.37868,-12.37125 12.37868,-12.37125 h 19.62132 19.62132 l -0.004,2.125 c -0.002,1.19989 -0.39384,2.71723 -0.9004,3.48537 -0.4934,0.74821 -6.13671,6.76696 -12.54067,13.375 l -11.64337,12.01463 h -19.45603 -19.45603 z"
       id="path44"
       inkscape:connector-curvature="0" />
    <path
       style="fill:#008000;stroke-width:0.5"
       d="m 220.49335,171.00983 -0.15431,-2.71655 -18.83785,-0.25 -18.83784,-0.25 10.83784,-11.14748 10.83785,-11.14747 19.375,0.0225 19.375,0.0225 v 2.87917 2.87917 l -11.22069,11.21238 -11.2207,11.21238 z"
       id="path46"
       inkscape:connector-curvature="0" />
    <path
       style="fill:#008000;stroke-width:0.5"
       d="m 145.08904,156.79328 11.24167,-11.25 16.00416,0.0438 c 8.8023,0.0241 17.12917,0.19285 18.50417,0.375 l 2.5,0.3312 -10.69898,10.875 -10.69899,10.875 h -19.04685 -19.04684 z"
       id="path48"
       inkscape:connector-curvature="0" />
    <path
       style="fill:#008000;stroke-width:0.5"
       d="m 96.589041,156.79328 11.241669,-11.25 15.00416,0.004 c 8.2523,0.002 16.54288,0.14885 18.42353,0.32644 l 3.41935,0.32289 -10.91509,10.92355 -10.9151,10.92356 H 104.09747 85.347375 Z"
       id="path50"
       inkscape:connector-curvature="0" />
    <path
       style="fill:#000080;stroke-width:0.5"
       d="m 52.589041,203.66474 v -2.87854 l 13.128473,-13.12146 13.128473,-13.12146 h 13.043746 c 7.17406,0 15.456597,0.14763 18.405637,0.32807 l 5.3619,0.32807 -12.53412,12.56947 -12.534109,12.56947 v 3.10246 3.10246 h -19 -19 z"
       id="path52"
       inkscape:connector-curvature="0" />
    <path
       style="fill:#000080;stroke-width:0.5"
       d="m 100.76715,204.25214 c 0.17272,-1.26013 0.77944,-2.89138 1.34827,-3.625 0.56882,-0.73362 6.47051,-6.9357 13.11485,-13.78238 l 12.08063,-12.44853 17.49688,0.35902 c 9.62329,0.19746 17.77076,0.51228 18.10549,0.6996 0.39025,0.2184 -3.6756,4.73506 -11.33295,12.58951 l -11.94154,12.24892 -0.0249,3.125 -0.0249,3.125 h -19.56796 -19.56796 z"
       id="path54"
       inkscape:connector-curvature="0" />
    <path
       style="fill:#000080;stroke-width:0.5"
       d="m 149.58904,203.41453 v -3.12875 l 12.37868,-12.37125 12.37868,-12.37125 h 19.62132 19.62132 l -0.0282,1.375 c -0.064,3.11887 -1.42572,4.89375 -13.15986,17.15284 l -11.93811,12.47216 h -19.43691 -19.43692 z"
       id="path56"
       inkscape:connector-curvature="0" />
    <path
       style="fill:#000080;stroke-width:0.5"
       d="m 220.58904,170.91411 v -2.87083 l -11.625,-0.002 c -6.39375,-0.001 -14.82056,-0.14802 -18.72625,-0.32669 l -7.10124,-0.32487 10.60124,-10.89848 10.60125,-10.89848 19.375,-0.0248 19.375,-0.0248 v 2.87917 2.87917 l -11.25,11.24166 -11.25,11.24167 z"
       id="path58"
       inkscape:connector-curvature="0" />
    <path
       style="fill:#000080;stroke-width:0.5"
       d="m 145.09321,156.73969 11.24583,-11.3036 17.73448,0.31307 c 9.75396,0.17219 17.89729,0.47756 18.09628,0.6786 0.199,0.20103 -4.25841,5.14677 -9.90536,10.99052 l -10.26718,10.625 h -19.07494 -19.07494 z"
       id="path60"
       inkscape:connector-curvature="0" />
    <path
       style="fill:#008080;stroke-width:0.5"
       d="m 96.593208,156.74322 11.245832,-11.30006 17.90332,0.24505 c 9.84683,0.13477 18.04897,0.3907 18.227,0.56872 0.17802,0.17802 -4.50151,5.15277 -10.39896,11.05501 l -10.72264,10.73134 H 104.09757 85.347375 Z"
       id="path62"
       inkscape:connector-curvature="0" />
    <path
       style="fill:#008080;stroke-width:0.5"
       d="m 52.589041,203.66474 v -2.87854 l 13.210271,-13.20321 13.210271,-13.20322 17.868344,0.32704 c 9.827593,0.17987 17.991503,0.45019 18.142033,0.60072 0.15052,0.15052 -5.28486,5.83555 -12.07862,12.63339 l -12.352299,12.35972 v 3.12132 3.12132 h -19 -19 z"
       id="path64"
       inkscape:connector-curvature="0" />
    <path
       style="fill:#008080;stroke-width:0.5"
       d="m 100.88223,204.66828 c 0.18617,-1.03125 0.59728,-2.38292 0.91357,-3.00371 0.31629,-0.62079 6.19291,-6.98494 13.05916,-14.14256 l 12.48408,-13.01384 12,0.28062 c 6.6,0.15434 14.53079,0.40941 17.62397,0.56681 l 5.62397,0.2862 -0.96853,1.36018 c -0.5327,0.7481 -5.70723,6.24911 -11.49897,12.22446 l -10.53044,10.86428 v 3.22628 3.22628 h -19.52266 -19.52265 z"
       id="path66"
       inkscape:connector-curvature="0" />
    <path
       style="fill:#008080;stroke-width:0.5"
       d="m 136.85088,165.41828 c 1.36083,-1.44375 6.30237,-6.50989 10.9812,-11.25808 l 8.50696,-8.63308 13,0.27447 c 15.98327,0.33745 22.34706,0.70445 22.15048,1.27742 -0.0828,0.24123 -4.52587,5.05687 -9.87358,10.70143 l -9.72309,10.26284 h -18.75811 -18.75811 z"
       id="path68"
       inkscape:connector-curvature="0" />
    <path
       style="fill:#008080;stroke-width:0.5"
       d="m 220.58904,170.83847 v -2.63507 l -12.375,-0.32897 c -6.80625,-0.18094 -14.7375,-0.33292 -17.625,-0.33772 -2.8875,-0.005 -5.53759,-0.19124 -5.88909,-0.4143 -0.45001,-0.28557 2.4115,-3.5377 9.67206,-10.99235 l 10.31115,-10.58678 h 19.20294 19.20294 v 2.93586 2.93585 l -11.25,11.02927 -11.25,11.02927 z"
       id="path70"
       inkscape:connector-curvature="0" />
    <path
       style="fill:#008080;stroke-width:0.5"
       d="m 149.58904,203.63543 v -2.90786 l 12.625,-12.5886 12.625,-12.5886 19.39766,-0.004 19.39766,-0.004 -0.32687,1.875 c -0.56055,3.2155 -2.34942,5.36153 -18.75541,22.5 l -6.34185,6.625 h -19.3106 -19.31059 z"
       id="path72"
       inkscape:connector-curvature="0" />
    <rect
       style="fill:#008080;opacity:0;stroke:#000000;stroke-opacity:1;stroke-width:1.8;stroke-miterlimit:4;stroke-dasharray:none"
       id="rect74"
       width="256"
       height="256"
       x="1"
       y="0.49999985" />
    <path
       style="fill:none;stroke:#000000;stroke-width:1.78680265;stroke-linecap:butt;stroke-linejoin:miter;stroke-miterlimit:4;stroke-dasharray:none;stroke-opacity:1"
       d="M 1.0785329,255.11654 V 0.93885053 H 255.14694 V 255.11654 Z"
       id="path4605"
       inkscape:connector-curvature="0" />
  </g>
</svg>
