<?xml version="1.0" encoding="UTF-8" standalone="no"?>
<!-- Created with Inkscape (http://www.inkscape.org/) -->

<svg
   xmlns:dc="http://purl.org/dc/elements/1.1/"
   xmlns:cc="http://creativecommons.org/ns#"
   xmlns:rdf="http://www.w3.org/1999/02/22-rdf-syntax-ns#"
   xmlns:svg="http://www.w3.org/2000/svg"
   xmlns="http://www.w3.org/2000/svg"
   xmlns:sodipodi="http://sodipodi.sourceforge.net/DTD/sodipodi-0.dtd"
   xmlns:inkscape="http://www.inkscape.org/namespaces/inkscape"
   width="40px"
   height="40px"
   viewBox="0 0 40 40"
   version="1.1"
   id="SVGRoot"
   inkscape:version="0.92.2 (5c3e80d, 2017-08-06)"
   sodipodi:docname="graphOptions.svg">
  <sodipodi:namedview
     id="base"
     pagecolor="#ffffff"
     bordercolor="#666666"
     borderopacity="1.0"
     inkscape:pageopacity="0.0"
     inkscape:pageshadow="2"
     inkscape:zoom="12.8"
     inkscape:cx="9.9827069"
     inkscape:cy="19.433171"
     inkscape:document-units="px"
     inkscape:current-layer="layer1"
     showgrid="false"
     inkscape:window-width="1600"
     inkscape:window-height="837"
     inkscape:window-x="1912"
     inkscape:window-y="-8"
     inkscape:window-maximized="1"
     inkscape:grid-bbox="true"
     inkscape:measure-start="0,0"
     inkscape:measure-end="0,0" />
  <defs
     id="defs3787" />
  <metadata
     id="metadata3790">
    <rdf:RDF>
      <cc:Work
         rdf:about="">
        <dc:format>image/svg+xml</dc:format>
        <dc:type
           rdf:resource="http://purl.org/dc/dcmitype/StillImage" />
        <dc:title></dc:title>
      </cc:Work>
    </rdf:RDF>
  </metadata>
  <g
     id="layer1"
     inkscape:groupmode="layer"
     inkscape:label="Layer 1">
    <rect
       style="fill:#e6e6e6;stroke-width:1.14368737"
       id="rect3805"
       width="31.484375"
       height="32.263371"
       x="1.015625"
       y="7.11163" />
    <path
       style="fill:none;stroke:#000000;stroke-width:0.83092785px;stroke-linecap:butt;stroke-linejoin:miter;stroke-opacity:1"
       d="m 2.3139497,28.728737 1.8825709,-2.921231 1.8176547,1.55799 1.8176546,-2.272068 2.4019011,2.921231 1.038659,-4.738886 0.649163,-4.154639 -0.06492,-3.95989 0.649163,-0.843912 1.493073,0.389498 0.454414,5.452964 0.51933,3.830058 0.389497,2.856314 2.207152,0.389498 2.07732,-0.584246"
       id="path3931"
       inkscape:connector-curvature="0"
       sodipodi:nodetypes="ccccccccccccccc" />
    <path
       style="fill:none;stroke:#000000;stroke-width:0.83092785px;stroke-linecap:butt;stroke-linejoin:miter;stroke-opacity:1"
       d="M 1.9731395,7.5660438 1.9893686,38.33634 31.591173,38.206508"
       id="path3939"
       inkscape:connector-curvature="0"
       sodipodi:nodetypes="ccc" />
    <path
       style="fill:none;stroke:#000000;stroke-width:0.83092785px;stroke-linecap:butt;stroke-linejoin:miter;stroke-opacity:1"
       d="m 19.646581,26.651418 1.298329,-0.324582 2.207152,-0.324581 2.661566,-1.493073 0.843911,-1.947487 1.363241,0.06492 1.363241,0.259665 1.622906,0.324581 0.454413,-0.714078"
       id="path3941"
       inkscape:connector-curvature="0" />
    <path
       style="fill:#666666;stroke:#000000;stroke-width:0.83092785px;stroke-linecap:butt;stroke-linejoin:miter;stroke-opacity:1"
       d="m 2.3139497,28.728737 1.8825709,-2.921231 1.8176547,1.55799 1.8176546,-2.272068 2.4019011,2.921231 1.687822,-8.893525 -0.06492,-3.95989 0.649163,-0.843912 1.493073,0.389498 1.363241,12.139336 2.207152,0.389498 2.07732,-0.584246 3.505481,-0.649163 2.661566,-1.493073 0.843911,-1.947487 1.363241,0.06492 2.986147,0.584246 0.454413,-0.714078 0.129833,15.709725 -29.6018044,0.129832 0.00698,-9.602107 z"
       id="path3952"
       inkscape:connector-curvature="0" />
    <path
       style="opacity:1;fill:#ff9955;fill-opacity:1;stroke-width:0.12983248"
       d="m 2.4878713,33.568962 v -4.279986 l 0.8664818,-1.335269 c 0.4765649,-0.734398 0.8839747,-1.35805 0.9053549,-1.385893 0.021381,-0.02784 0.4276129,0.281229 0.9027391,0.686826 0.9949869,0.849385 0.8792305,0.879024 1.9344771,-0.495317 0.3570393,-0.465005 0.6862034,-0.847601 0.7314757,-0.850213 0.045272,-0.0026 0.6522277,0.69798 1.3487894,1.556872 0.6965618,0.858892 1.2871957,1.540903 1.3125197,1.515579 0.02533,-0.02533 0.455238,-2.203276 0.955365,-4.839892 0.877279,-4.624924 0.909335,-4.863919 0.909694,-6.78233 4.28e-4,-2.290084 0.07493,-2.550905 0.691019,-2.41899 0.22711,0.04863 0.438472,0.112003 0.469691,0.140832 0.03122,0.02883 0.360701,2.743973 0.732181,6.033654 0.371479,3.28968 0.725695,6.028026 0.787147,6.085213 0.06146,0.05719 0.669584,0.197273 1.351404,0.311299 1.194963,0.199843 1.272226,0.197769 2.142236,-0.05752 0.49641,-0.145659 1.780819,-0.433235 2.854242,-0.639058 1.859335,-0.356518 2.019344,-0.412345 3.38177,-1.179915 l 1.430092,-0.805691 0.375721,-0.890562 c 0.348139,-0.825184 0.404876,-0.890524 0.772868,-0.890064 0.404398,5.07e-4 3.559293,0.586636 3.650944,0.678288 0.02764,0.02764 0.06637,3.177839 0.08606,7.000425 l 0.03579,6.95016 -7.389376,0.08577 c -4.064156,0.04717 -10.505471,0.08577 -14.31403,0.08577 H 2.4878713 Z"
       id="path3954"
       inkscape:connector-curvature="0" />
    <path
       inkscape:connector-curvature="0"
       d="m 37.364037,10.455603 c 0.03603,-0.300225 0.06004,-0.612458 0.06004,-0.9367 0,-0.324243 -0.02402,-0.636476 -0.07205,-0.936701 L 39.381544,6.9970177 C 39.561679,6.85291 39.609715,6.5887125 39.501634,6.3845599 L 37.580198,3.0580736 C 37.460108,2.8419121 37.20792,2.7698582 36.991758,2.8419121 l -2.389786,0.960718 C 34.097595,3.4183429 33.5692,3.1061095 32.98076,2.86593 L 32.620491,0.3200272 C 32.584461,0.0798477 32.380312,-0.088278 32.140132,-0.088278 H 28.29726 c -0.24018,0 -0.432323,0.1681257 -0.46835,0.4083052 L 27.468641,2.86593 c -0.58844,0.2401795 -1.128844,0.5644219 -1.621212,0.9367001 l -2.389786,-0.960718 c -0.216162,-0.084063 -0.46835,0 -0.58844,0.2161615 l -1.921436,3.3264863 c -0.12009,0.2161616 -0.07205,0.4683501 0.12009,0.6124578 l 2.029516,1.5851843 c -0.04803,0.300225 -0.08406,0.624467 -0.08406,0.936701 0,0.312233 0.02402,0.636475 0.07205,0.9367 l -2.029516,1.585184 c -0.180135,0.144108 -0.228171,0.408306 -0.12009,0.612458 l 1.921436,3.326486 c 0.12009,0.216162 0.372278,0.288216 0.58844,0.216162 l 2.389786,-0.960718 c 0.504377,0.384287 1.032772,0.696521 1.621212,0.9367 l 0.360269,2.545903 c 0.04804,0.240179 0.240179,0.408305 0.480359,0.408305 h 3.842872 c 0.24018,0 0.444332,-0.168126 0.46835,-0.408305 l 0.360269,-2.545903 c 0.58844,-0.240179 1.128844,-0.564422 1.621212,-0.9367 l 2.389786,0.960718 c 0.216162,0.08406 0.46835,0 0.58844,-0.216162 l 1.921436,-3.326486 c 0.12009,-0.216161 0.07205,-0.46835 -0.12009,-0.612458 z m -7.145341,2.665992 c -1.981481,0 -3.602693,-1.621211 -3.602693,-3.602692 0,-1.981481 1.621212,-3.6026932 3.602693,-3.6026932 1.981481,0 3.602693,1.6212122 3.602693,3.6026932 0,1.981481 -1.621212,3.602692 -3.602693,3.602692 z"
       id="path4"
       style="stroke-width:1.20089757" />
  </g>
</svg>
