<?xml version="1.0" encoding="UTF-8" standalone="no"?>
<!-- Created with Inkscape (http://www.inkscape.org/) -->

<svg
   xmlns:dc="http://purl.org/dc/elements/1.1/"
   xmlns:cc="http://creativecommons.org/ns#"
   xmlns:rdf="http://www.w3.org/1999/02/22-rdf-syntax-ns#"
   xmlns:svg="http://www.w3.org/2000/svg"
   xmlns="http://www.w3.org/2000/svg"
   xmlns:sodipodi="http://sodipodi.sourceforge.net/DTD/sodipodi-0.dtd"
   xmlns:inkscape="http://www.inkscape.org/namespaces/inkscape"
   width="128px"
   height="128px"
   viewBox="0 0 128 128"
   version="1.1"
   id="SVGRoot"
   inkscape:version="0.92.2 (5c3e80d, 2017-08-06)"
   sodipodi:docname="icon.svg">
  <sodipodi:namedview
     id="base"
     pagecolor="#ffffff"
     bordercolor="#666666"
     borderopacity="1.0"
     inkscape:pageopacity="0.0"
     inkscape:pageshadow="2"
     inkscape:zoom="4"
     inkscape:cx="74.41461"
     inkscape:cy="62.740205"
     inkscape:document-units="px"
     inkscape:current-layer="layer1"
     showgrid="false"
     inkscape:window-width="1600"
     inkscape:window-height="837"
     inkscape:window-x="1912"
     inkscape:window-y="-8"
     inkscape:window-maximized="1"
     inkscape:grid-bbox="true" />
  <defs
     id="defs26" />
  <metadata
     id="metadata29">
    <rdf:RDF>
      <cc:Work
         rdf:about="">
        <dc:format>image/svg+xml</dc:format>
        <dc:type
           rdf:resource="http://purl.org/dc/dcmitype/StillImage" />
        <dc:title></dc:title>
      </cc:Work>
    </rdf:RDF>
  </metadata>
  <g
     id="layer1"
     inkscape:groupmode="layer"
     inkscape:label="Layer 1">
    <ellipse
       id="path42"
       cx="63.75"
       cy="64"
       rx="63.75"
       ry="64"
       style="stroke-width:1.84477377" />
    <path
       style="stroke-width:0.25"
       d="M 59.41461,127.74464 C 51.679307,126.99202 46.735207,125.87378 40.668605,123.50472 18.352455,114.79009 2.5992244,93.792287 0.39203884,69.819255 0.02855656,65.871345 0.22484271,58.299495 0.78501966,54.659795 2.8609436,41.171665 8.7557016,29.262487 18.155002,19.567231 28.939087,8.4435839 42.717167,1.8153039 58.019527,0.38943084 61.91213,0.02671846 69.450765,0.22081697 73.03961,0.77615539 97.864995,4.6176389 117.75067,22.112253 124.91019,46.409795 c 3.5941,12.197407 3.18431,26.365725 -1.11977,38.716207 -7.5589,21.690108 -26.667783,37.944828 -49.12581,41.788238 -4.931428,0.84396 -11.458043,1.19935 -15.25,0.8304 z"
       id="path50"
       inkscape:connector-curvature="0" />
    <path
       style="stroke-width:0.25"
       d="m 57.91461,127.64914 c -9.534038,-0.91567 -19.822845,-4.3862 -27.625,-9.31821 C 24.502924,114.67296 17.658085,108.55397 13.878146,103.65979 8.1511319,96.24459 4.0740664,87.85857 1.9354824,79.095212 0.55469959,73.437125 0.28834849,70.94048 0.30211146,63.784795 0.31611906,56.501907 0.65406126,53.7343 2.2925616,47.48384 7.2164509,28.70046 21.244181,12.589438 39.239162,5.0502091 57.386365,-2.5527949 78.616095,-1.2290171 95.339712,8.5483536 123.59229,25.066067 134.96836,59.414687 122.12058,89.409795 c -2.43082,5.675115 -6.1225,11.526955 -10.42405,16.523605 -5.47504,6.35977 -12.269305,11.59856 -19.90692,15.34943 -6.248318,3.06859 -12.039465,4.89747 -18.672858,5.89701 -3.8499,0.58012 -11.567585,0.81837 -15.202142,0.4693 z"
       id="path52"
       inkscape:connector-curvature="0" />
    <path
       style="stroke-width:0.25"
       d="M 57.78961,127.64666 C 42.82635,126.11404 29.566047,119.81323 18.899709,109.16762 13.477208,103.75566 10.070098,98.988917 6.6537281,92.034795 2.4625966,83.503622 0.52239229,75.629552 0.23795186,65.997197 -0.09722614,54.64665 2.075805,44.81015 7.1056259,34.909795 10.011761,29.18956 13.579923,24.263914 18.399305,19.319513 33.56283,3.7626321 55.024965,-2.8610029 76.41461,1.4148546 95.567567,5.2435914 112.09652,18.038304 120.77638,35.75436 c 3.75594,7.66607 5.68528,14.684822 6.41416,23.33413 1.00984,11.983345 -1.94906,25.608337 -7.7992,35.91328 -10.24103,18.03945 -27.512793,29.76905 -47.72673,32.41215 -2.887385,0.37755 -11.113978,0.51554 -13.875,0.23274 z"
       id="path54"
       inkscape:connector-curvature="0" />
    <path
       style="stroke-width:0.25"
       d="m 59.03961,127.74744 c -0.4125,-0.0481 -1.81875,-0.20901 -3.125,-0.35761 -8.558338,-0.9736 -18.012083,-4.3042 -25.537373,-8.99695 C 22.246343,113.32248 14.429286,105.45708 9.5231029,97.409795 5.2196926,90.351195 2.0850108,81.786755 0.78458269,73.534795 0.22812411,70.003747 0.02659501,61.958032 0.39570886,58.009655 2.2076266,38.627725 12.591972,21.432327 29.143255,10.406706 36.204012,5.7031881 44.682937,2.4181541 53.68184,0.89959362 57.68916,0.22336019 65.617842,-0.02720854 69.795207,0.39036582 85.077825,1.9180347 98.913655,8.6376626 109.53961,19.692972 c 20.77263,21.611975 23.73357,54.508583 7.17308,79.694503 -3.1966,4.861525 -8.43178,10.652605 -12.89684,14.266285 -9.828668,7.95457 -22.01904,12.89349 -34.52624,13.98828 -2.799255,0.24502 -8.545463,0.30412 -10.25,0.1054 z"
       id="path56"
       inkscape:connector-curvature="0" />
    <ellipse
       style="fill:#ffffff;stroke-width:2.89500737"
       id="path104"
       cx="63.751751"
       cy="63.875"
       rx="61.501751"
       ry="62.375" />
    <ellipse
       style="fill:#666666;stroke-width:2.7052002"
       id="path106"
       cx="72.655144"
       cy="35.576126"
       rx="23.155142"
       ry="23.673874" />
  </g>
</svg>
