<?xml version="1.0" encoding="UTF-8" standalone="no"?>
<!-- Created with Inkscape (http://www.inkscape.org/) -->

<svg
   xmlns:dc="http://purl.org/dc/elements/1.1/"
   xmlns:cc="http://creativecommons.org/ns#"
   xmlns:rdf="http://www.w3.org/1999/02/22-rdf-syntax-ns#"
   xmlns:svg="http://www.w3.org/2000/svg"
   xmlns="http://www.w3.org/2000/svg"
   xmlns:sodipodi="http://sodipodi.sourceforge.net/DTD/sodipodi-0.dtd"
   xmlns:inkscape="http://www.inkscape.org/namespaces/inkscape"
   width="155"
   height="55"
   viewBox="0 0 155 55"
   version="1.1"
   id="SVGRoot"
   inkscape:version="0.92.2 (5c3e80d, 2017-08-06)"
   sodipodi:docname="logo.svg">
  <sodipodi:namedview
     id="base"
     pagecolor="#ffffff"
     bordercolor="#666666"
     borderopacity="1.0"
     inkscape:pageopacity="0.0"
     inkscape:pageshadow="2"
     inkscape:zoom="4"
     inkscape:cx="102.875"
     inkscape:cy="69.486327"
     inkscape:document-units="px"
     inkscape:current-layer="layer1"
     showgrid="false"
     inkscape:window-width="1600"
     inkscape:window-height="900"
     inkscape:window-x="-8"
     inkscape:window-y="35"
     inkscape:window-maximized="1"
     inkscape:grid-bbox="true" />
  <defs
     id="defs3965" />
  <metadata
     id="metadata3968">
    <rdf:RDF>
      <cc:Work
         rdf:about="">
        <dc:format>image/svg+xml</dc:format>
        <dc:type
           rdf:resource="http://purl.org/dc/dcmitype/StillImage" />
        <dc:title></dc:title>
      </cc:Work>
    </rdf:RDF>
  </metadata>
  <g
     id="layer1"
     inkscape:groupmode="layer"
     inkscape:label="Layer 1"
     transform="translate(0,-73)">
    <g
       transform="matrix(0.00581611,0,0,-0.00581611,-19.959409,129.11136)"
       id="g38"
       style="display:inline;fill:#000000;stroke:none">
      <path
         d="M 7795,9519 C 7426,9487 6975,9390 6654,9274 6170,9099 5714,8848 5340,8552 5129,8385 4858,8125 4694,7935 4147,7300 3781,6524 3641,5700 c -41,-237 -53,-384 -58,-682 -6,-314 3,-490 37,-728 31,-218 29,-210 57,-210 18,0 23,4 19,18 -2,9 -12,64 -21,121 -109,706 -51,1440 167,2111 182,560 459,1060 846,1530 186,225 505,527 758,718 100,75 370,252 483,316 1475,841 3314,786 4739,-141 322,-209 649,-486 884,-748 86,-97 107,-115 131,-115 h 29 l -54,62 c -373,434 -884,831 -1410,1094 -525,263 -1098,424 -1693,474 -141,12 -617,11 -760,-1 z"
         id="path2"
         inkscape:connector-curvature="0" />
      <path
         d="m 9381,7814 c -674,-82 -1249,-552 -1461,-1193 -71,-215 -85,-305 -85,-561 0,-176 4,-245 18,-315 74,-367 220,-651 467,-908 264,-275 557,-436 940,-518 90,-19 137,-23 330,-23 197,-1 239,2 338,22 976,198 1598,1126 1402,2092 -46,228 -156,485 -288,670 -86,122 -300,336 -422,423 -120,85 -341,195 -486,241 -230,73 -513,100 -753,70 z"
         id="path4"
         inkscape:connector-curvature="0" />
      <path
         d="m 11732,6033 3,-1588 h 130 130 l 5,1225 5,1225 1055,-1250 c 580,-687 1063,-1258 1072,-1270 16,-19 17,65 18,1553 v 1573 l -127,-3 -128,-3 -5,-1205 -5,-1205 -1073,1268 c -590,697 -1075,1267 -1077,1267 -3,0 -4,-714 -3,-1587 z"
         id="path6"
         inkscape:connector-curvature="0" />
      <path
         d="M 14910,6032 V 4440 h 130 130 l 2,1231 3,1231 1073,-1271 c 591,-699 1075,-1271 1078,-1271 2,0 4,707 4,1570 v 1570 h -130 -130 V 6294 c 0,-668 -4,-1204 -9,-1202 -4,2 -484,566 -1066,1253 -581,688 -1063,1257 -1071,1265 -12,12 -14,-215 -14,-1578 z"
         id="path8"
         inkscape:connector-curvature="0" />
      <path
         d="m 6210,7554 c -159,-27 -223,-42 -326,-75 -135,-43 -310,-128 -424,-204 -98,-66 -266,-228 -345,-334 -346,-461 -404,-1196 -136,-1732 150,-298 373,-520 674,-668 485,-240 1031,-237 1552,8 55,26 119,60 143,74 l 42,27 v 161 c 0,88 -4,159 -8,157 -4,-1 -52,-33 -107,-70 -276,-184 -556,-271 -870,-271 -239,0 -415,41 -614,143 -358,185 -586,506 -658,930 -23,132 -22,412 1,545 99,561 491,957 1041,1050 135,23 379,24 500,1 241,-46 433,-133 642,-293 46,-35 85,-63 88,-63 3,0 5,69 5,154 v 154 l -82,55 c -164,109 -354,187 -555,228 -87,18 -149,22 -323,25 -118,1 -226,0 -240,-2 z"
         id="path10"
         inkscape:connector-curvature="0" />
      <path
         d="m 21465,7545 c -233,-38 -479,-134 -675,-263 -110,-73 -291,-249 -370,-360 -189,-264 -290,-599 -290,-955 1,-638 304,-1158 830,-1422 489,-245 1058,-242 1575,10 61,30 125,63 143,74 l 32,21 v 160 c 0,88 -2,160 -4,160 -3,0 -48,-29 -101,-65 -399,-271 -876,-351 -1297,-219 -317,99 -602,346 -743,641 -171,357 -178,878 -16,1243 88,202 260,408 433,523 234,154 464,220 773,219 337,0 602,-94 886,-313 42,-33 79,-59 82,-59 4,0 7,69 7,153 v 153 l -92,61 c -166,110 -340,182 -546,225 -130,27 -493,34 -627,13 z"
         id="path12"
         inkscape:connector-curvature="0" />
      <path
         d="m 18085,7488 c -3,-7 -4,-695 -3,-1528 l 3,-1515 h 755 755 l 3,133 3,132 h -616 -615 v 655 655 h 615 615 v 130 130 h -615 -615 v 475 475 h 615 616 l -3,133 -3,132 -753,3 c -597,2 -754,0 -757,-10 z"
         id="path14"
         inkscape:connector-curvature="0" />
      <path
         d="m 23027,7493 c -4,-3 -7,-64 -7,-135 v -128 h 420 420 l 2,-1392 3,-1393 138,-3 137,-3 v 1396 1395 h 420 420 v 135 135 h -973 c -536,0 -977,-3 -980,-7 z"
         id="path16"
         inkscape:connector-curvature="0" />
      <path
         d="M 25440,5970 V 4440 h 755 755 v 135 135 h -615 -615 v 655 655 h 615 615 v 130 130 h -615 -615 v 475 475 h 615 615 v 135 135 h -755 -755 z"
         id="path18"
         inkscape:connector-curvature="0" />
      <path
         d="M 27630,5970 V 4437 l 473,6 c 579,7 754,21 954,77 299,83 566,291 718,560 158,278 232,652 206,1030 -31,435 -165,764 -411,1010 -190,191 -403,294 -687,335 -189,27 -347,35 -805,42 l -448,6 z m 1120,1270 c 363,-44 594,-193 763,-491 55,-97 120,-289 142,-418 36,-208 38,-504 4,-696 -67,-389 -266,-699 -534,-831 -180,-89 -296,-104 -812,-111 l -403,-5 v 1287 1287 l 373,-5 c 204,-3 415,-10 467,-17 z"
         id="path20"
         inkscape:connector-curvature="0" />
      <path
         d="m 13969,4138 c -6,-16 -286,-2185 -283,-2190 3,-5 48,-8 99,-8 90,0 95,1 99,23 3,12 39,371 81,797 42,426 78,776 79,777 2,2 146,-324 321,-724 175,-401 341,-779 368,-841 l 50,-113 368,828 c 202,455 371,834 376,842 5,7 41,-319 86,-779 42,-435 79,-796 82,-801 4,-5 49,-9 101,-9 91,0 94,1 94,23 -1,43 -266,2166 -271,2171 -3,3 -192,-412 -420,-924 -228,-511 -416,-929 -419,-929 -3,0 -185,418 -404,929 -220,512 -401,930 -403,930 -2,0 -3,-1 -4,-2 z"
         id="path22"
         inkscape:connector-curvature="0" />
      <path
         d="m 6582,4090 c -40,-11 -96,-32 -125,-47 -70,-38 -168,-137 -200,-204 -83,-169 -68,-384 37,-527 69,-94 193,-184 441,-321 335,-185 405,-278 392,-526 -5,-113 -22,-167 -72,-241 -83,-120 -249,-181 -420,-154 -163,26 -295,141 -349,303 -5,16 -11,15 -68,-14 -35,-18 -73,-38 -85,-47 l -23,-14 42,-82 c 30,-57 64,-103 118,-156 120,-121 245,-170 435,-170 187,0 318,46 430,151 123,115 174,236 183,430 13,322 -94,469 -508,693 -231,125 -322,201 -377,315 -23,45 -28,69 -27,126 1,124 40,207 128,270 62,44 130,59 242,53 127,-7 206,-49 279,-151 l 20,-28 70,42 c 39,23 71,43 73,45 10,7 -39,77 -94,132 -68,68 -148,111 -242,131 -80,17 -217,13 -300,-9 z"
         id="path24"
         inkscape:connector-curvature="0" />
      <path
         d="m 9683,4095 c -95,-21 -194,-77 -262,-150 -93,-100 -131,-202 -131,-348 1,-242 115,-375 515,-597 318,-177 395,-262 412,-454 12,-147 -37,-296 -123,-375 -60,-56 -132,-88 -226,-101 -216,-30 -403,72 -480,262 -12,29 -23,54 -24,56 -2,3 -150,-74 -163,-85 -9,-7 57,-129 103,-189 108,-144 247,-212 452,-221 212,-10 362,42 483,165 116,118 164,248 164,447 1,303 -103,440 -493,650 -223,121 -336,211 -391,316 -20,37 -24,58 -24,139 0,84 3,102 28,152 30,61 74,105 140,140 37,20 57,23 162,23 111,0 124,-2 176,-28 52,-25 122,-88 146,-131 9,-16 16,-14 81,26 40,23 72,48 72,54 0,19 -77,118 -117,150 -125,100 -318,138 -500,99 z"
         id="path26"
         inkscape:connector-curvature="0" />
      <path
         d="m 16607,4094 c -91,-22 -163,-61 -233,-127 -111,-104 -154,-204 -154,-361 0,-151 35,-241 133,-343 74,-77 188,-156 372,-258 312,-172 389,-251 416,-425 23,-153 -30,-334 -124,-416 -151,-132 -415,-133 -579,-2 -47,37 -113,133 -130,190 -6,21 -13,38 -15,38 -13,0 -163,-86 -163,-93 0,-5 19,-45 42,-89 79,-152 216,-260 383,-303 75,-19 238,-19 330,0 166,35 309,143 379,286 53,108 67,175 67,314 0,306 -103,441 -501,655 -228,122 -326,204 -382,317 -29,59 -30,68 -26,150 7,132 56,215 163,271 46,25 59,27 170,27 111,0 124,-2 177,-28 53,-26 103,-72 138,-126 l 16,-23 69,42 c 39,23 72,44 75,47 10,10 -38,77 -94,132 -71,67 -139,105 -228,126 -78,18 -224,18 -301,-1 z"
         id="path28"
         inkscape:connector-curvature="0" />
      <path
         d="m 7500,4056 c 0,-2 158,-260 350,-572 l 350,-569 v -488 -488 l 98,3 97,3 5,495 5,495 329,540 c 181,297 336,550 344,563 l 14,22 h -113 -114 l -280,-476 c -153,-261 -282,-477 -285,-479 -3,-2 -132,212 -286,475 l -279,479 -117,1 c -65,0 -118,-2 -118,-4 z"
         id="path30"
         inkscape:connector-curvature="0" />
      <path
         d="m 10620,3970 v -90 l 293,-2 292,-3 3,-967 2,-968 h 95 95 l 2,968 3,967 293,3 292,2 v 90 90 h -685 -685 z"
         id="path32"
         inkscape:connector-curvature="0" />
      <path
         d="M 12300,3000 V 1940 h 525 525 v 95 95 h -425 -425 v 450 450 h 425 425 v 95 95 h -425 -425 v 330 330 h 425 425 v 90 90 h -525 -525 z"
         id="path34"
         inkscape:connector-curvature="0" />
      <path
         d="m 11423,1692 c -13,-4 -80,-59 -149,-122 C 10105,504 8512,114 6990,521 6293,708 5642,1069 5083,1579 c -94,85 -129,111 -150,111 -27,0 -27,-1 22,-51 153,-157 489,-427 712,-573 603,-394 1275,-633 2028,-723 213,-25 767,-25 980,0 774,92 1434,332 2065,753 218,145 369,264 572,449 161,147 174,165 111,147 z"
         id="path36"
         inkscape:connector-curvature="0" />
    </g>
  </g>
</svg>
