<?xml version="1.0" encoding="UTF-8" standalone="no"?>
<!-- Created with Inkscape (http://www.inkscape.org/) -->

<svg
   xmlns:dc="http://purl.org/dc/elements/1.1/"
   xmlns:cc="http://creativecommons.org/ns#"
   xmlns:rdf="http://www.w3.org/1999/02/22-rdf-syntax-ns#"
   xmlns:svg="http://www.w3.org/2000/svg"
   xmlns="http://www.w3.org/2000/svg"
   xmlns:sodipodi="http://sodipodi.sourceforge.net/DTD/sodipodi-0.dtd"
   xmlns:inkscape="http://www.inkscape.org/namespaces/inkscape"
   width="256px"
   height="256px"
   viewBox="0 0 256 256"
   version="1.1"
   id="SVGRoot"
   inkscape:version="0.92.2 (5c3e80d, 2017-08-06)"
   sodipodi:docname="lights.svg">
  <sodipodi:namedview
     id="base"
     pagecolor="#ffffff"
     bordercolor="#666666"
     borderopacity="1.0"
     inkscape:pageopacity="0.0"
     inkscape:pageshadow="2"
     inkscape:zoom="2"
     inkscape:cx="189.63433"
     inkscape:cy="102.34462"
     inkscape:document-units="px"
     inkscape:current-layer="layer2"
     showgrid="false"
     inkscape:window-width="1600"
     inkscape:window-height="837"
     inkscape:window-x="1912"
     inkscape:window-y="-8"
     inkscape:window-maximized="1"
     inkscape:grid-bbox="true" />
  <defs
     id="defs815" />
  <metadata
     id="metadata818">
    <rdf:RDF>
      <cc:Work
         rdf:about="">
        <dc:format>image/svg+xml</dc:format>
        <dc:type
           rdf:resource="http://purl.org/dc/dcmitype/StillImage" />
        <dc:title></dc:title>
      </cc:Work>
    </rdf:RDF>
  </metadata>
  <g
     id="layer1"
     inkscape:groupmode="layer"
     inkscape:label="Layer 1" />
  <g
     inkscape:groupmode="layer"
     id="layer2"
     inkscape:label="Layer 2">
    <g
       id="g2059"
       transform="matrix(1.2478162,0,0,1.2478162,-33.768472,-29.290069)"
       style="stroke-width:3.02891368;stroke-miterlimit:4;stroke-dasharray:none">
      <path
         sodipodi:nodetypes="cccccccccccccc"
         inkscape:connector-curvature="0"
         id="path1952"
         d="m 124.22982,135.79185 -0.13258,-2.47488 -1.85615,-0.0442 -0.0442,-10.03208 C 120.8912,116.36951 117.59235,111.33413 113.125,107.375 L 110.75,106 l 15.125,-3.75 19.25,4 c -3.57066,3.36515 -7.05788,6.78472 -8.75,11.375 -0.6727,2.69349 -0.99436,5.64036 -1,8.75 l -0.125,6.875 -3.125,0.125 -0.125,2.875 z"
         style="fill:none;stroke:#000000;stroke-width:3.02891368;stroke-linecap:butt;stroke-linejoin:miter;stroke-opacity:1;stroke-miterlimit:4;stroke-dasharray:none" />
      <path
         inkscape:connector-curvature="0"
         id="path1954"
         d="M 93.514852,74.450334 109.25,69.125 l 24,-4.8125 18.75,-3.6875 3.75,-1.5 -1.875,-2 -0.875,-0.875 -10.125,2.5 -32.25,6.5 L 98,68.625"
         style="fill:none;stroke:#000000;stroke-width:3.02891368;stroke-linecap:butt;stroke-linejoin:miter;stroke-opacity:1;stroke-miterlimit:4;stroke-dasharray:none" />
      <path
         inkscape:connector-curvature="0"
         id="path1956"
         d="M 95.371007,52.795188 102.25,50.375 112,48 l 19.125,-3.75 14.75,-3 5.25,-1.875"
         style="fill:none;stroke:#000000;stroke-width:3.02891368;stroke-linecap:butt;stroke-linejoin:miter;stroke-opacity:1;stroke-miterlimit:4;stroke-dasharray:none" />
      <path
         inkscape:connector-curvature="0"
         id="path1958"
         d="M 130.375,44 H 122.5 l -7.625,1.75 -3.5,1.875"
         style="fill:none;stroke:#000000;stroke-width:3.02891368;stroke-linecap:butt;stroke-linejoin:miter;stroke-opacity:1;stroke-miterlimit:4;stroke-dasharray:none" />
      <path
         inkscape:connector-curvature="0"
         id="path1960"
         d="m 114.5,64.375 8.75,1.875"
         style="fill:none;stroke:#000000;stroke-width:3.02891368;stroke-linecap:butt;stroke-linejoin:miter;stroke-opacity:1;stroke-miterlimit:4;stroke-dasharray:none" />
      <path
         inkscape:connector-curvature="0"
         id="path1962"
         d="m 123.25,62.5 7.875,1.875"
         style="fill:none;stroke:#000000;stroke-width:3.02891368;stroke-linecap:butt;stroke-linejoin:miter;stroke-opacity:1;stroke-miterlimit:4;stroke-dasharray:none" />
      <path
         inkscape:connector-curvature="0"
         id="path1964"
         d="m 124.45079,82.493673 8.92723,2.121321"
         style="fill:none;stroke:#000000;stroke-width:3.02891368;stroke-linecap:butt;stroke-linejoin:miter;stroke-opacity:1;stroke-miterlimit:4;stroke-dasharray:none" />
      <path
         inkscape:connector-curvature="0"
         id="path1966"
         d="m 115.87712,84.349829 7.86657,1.679378"
         style="fill:none;stroke:#000000;stroke-width:3.02891368;stroke-linecap:butt;stroke-linejoin:miter;stroke-opacity:1;stroke-miterlimit:4;stroke-dasharray:none" />
      <path
         inkscape:connector-curvature="0"
         id="path1968"
         d="m 93.691629,95.309984 7.071091,-3.800699 13.70019,-3.447146 11.93243,-1.944543 15.29118,-3.005204 12.63954,-2.386486 1.76776,-1.06066 -1.94454,-1.325825 -2.47488,-0.883884 -9.28077,1.856156 -17.94284,3.18198 -8.57367,1.856156 -12.99308,3.447145"
         style="fill:none;stroke:#000000;stroke-width:3.02891368;stroke-linecap:butt;stroke-linejoin:miter;stroke-opacity:1;stroke-miterlimit:4;stroke-dasharray:none" />
      <path
         inkscape:connector-curvature="0"
         id="path1970"
         d="m 95.25,146.125 65.79355,-0.16851"
         style="fill:none;stroke:#000000;stroke-width:3.02891368;stroke-linecap:butt;stroke-linejoin:miter;stroke-opacity:1;stroke-miterlimit:4;stroke-dasharray:none" />
      <path
         inkscape:connector-curvature="0"
         id="path1972"
         d="m 103.41437,137.11767 20.81545,-1.32582"
         style="fill:none;stroke:#000000;stroke-width:3.02891368;stroke-linecap:butt;stroke-linejoin:miter;stroke-opacity:1;stroke-miterlimit:4;stroke-dasharray:none" />
      <path
         inkscape:connector-curvature="0"
         id="path1974"
         d="m 132,136.25 21.70732,0.86765"
         style="fill:none;stroke:#000000;stroke-width:3.02891368;stroke-linecap:butt;stroke-linejoin:miter;stroke-opacity:1;stroke-miterlimit:4;stroke-dasharray:none" />
      <path
         inkscape:connector-curvature="0"
         id="path1976"
         d="m 135.25,133.25 16.24761,-0.0214"
         style="fill:none;stroke:#000000;stroke-width:3.02891368;stroke-linecap:butt;stroke-linejoin:miter;stroke-opacity:1;stroke-miterlimit:4;stroke-dasharray:none" />
      <path
         inkscape:connector-curvature="0"
         id="path1978"
         d="m 122.24109,133.27277 -15.9983,0.30937"
         style="fill:none;stroke:#000000;stroke-width:3.02891368;stroke-linecap:butt;stroke-linejoin:miter;stroke-opacity:1;stroke-miterlimit:4;stroke-dasharray:none" />
      <path
         inkscape:connector-curvature="0"
         id="path1980"
         d="m 115.87712,218.12559 25.67682,-0.30936"
         style="fill:none;stroke:#000000;stroke-width:3.02891368;stroke-linecap:butt;stroke-linejoin:miter;stroke-opacity:1;stroke-miterlimit:4;stroke-dasharray:none" />
      <path
         inkscape:connector-curvature="0"
         id="path1982"
         d="m 136.02966,222.5008 -14.84924,-0.0884"
         style="fill:none;stroke:#000000;stroke-width:3.02891368;stroke-linecap:butt;stroke-linejoin:miter;stroke-opacity:1;stroke-miterlimit:4;stroke-dasharray:none" />
      <path
         inkscape:connector-curvature="0"
         id="path1984"
         d="m 109.9551,208.1819 37.03472,-2.82844"
         style="fill:none;stroke:#000000;stroke-width:3.02891368;stroke-linecap:butt;stroke-linejoin:miter;stroke-opacity:1;stroke-miterlimit:4;stroke-dasharray:none" />
      <path
         inkscape:connector-curvature="0"
         id="path1986"
         d="m 110.13188,202.61344 37.12311,-3.44717"
         style="fill:none;stroke:#000000;stroke-width:3.02891368;stroke-linecap:butt;stroke-linejoin:miter;stroke-opacity:1;stroke-miterlimit:4;stroke-dasharray:none" />
      <path
         inkscape:connector-curvature="0"
         id="path1988"
         d="m 109.77833,196.77981 37.03472,-3.00523"
         style="fill:none;stroke:#000000;stroke-width:3.02891368;stroke-linecap:butt;stroke-linejoin:miter;stroke-opacity:1;stroke-miterlimit:4;stroke-dasharray:none" />
      <path
         inkscape:connector-curvature="0"
         id="path1990"
         d="m 109.9551,190.68101 37.2115,-3.182"
         style="fill:none;stroke:#000000;stroke-width:3.02891368;stroke-linecap:butt;stroke-linejoin:miter;stroke-opacity:1;stroke-miterlimit:4;stroke-dasharray:none" />
      <path
         inkscape:connector-curvature="0"
         id="path1992"
         d="m 106.41957,177.15759 44.37094,-0.0884"
         style="fill:none;stroke:#000000;stroke-width:3.02891368;stroke-linecap:butt;stroke-linejoin:miter;stroke-opacity:1;stroke-miterlimit:4;stroke-dasharray:none" />
      <path
         inkscape:connector-curvature="0"
         id="path1994"
         d="m 107.30345,181.40023 42.5148,-2e-5"
         style="fill:none;stroke:#000000;stroke-width:3.02891368;stroke-linecap:butt;stroke-linejoin:miter;stroke-opacity:1;stroke-miterlimit:4;stroke-dasharray:none" />
      <path
         inkscape:connector-curvature="0"
         id="path1996"
         d="m 125.875,102.25 14.04375,-2.16705 13.61181,-2.563258 8.66204,-2.298097"
         style="fill:none;stroke:#000000;stroke-width:3.02891368;stroke-linecap:butt;stroke-linejoin:miter;stroke-opacity:1;stroke-miterlimit:4;stroke-dasharray:none" />
      <path
         inkscape:connector-curvature="0"
         id="path1998"
         d="m 153,56.25 3.375,-1 2.98917,-1.570928"
         style="fill:none;stroke:#000000;stroke-width:3.02891368;stroke-linecap:butt;stroke-linejoin:miter;stroke-opacity:1;stroke-miterlimit:4;stroke-dasharray:none" />
      <path
         inkscape:connector-curvature="0"
         id="path2000"
         d="M 151.6744,77.455537 157.0625,75.9375"
         style="fill:none;stroke:#000000;stroke-width:3.02891368;stroke-linecap:butt;stroke-linejoin:miter;stroke-opacity:1;stroke-miterlimit:4;stroke-dasharray:none" />
      <path
         inkscape:connector-curvature="0"
         id="path2002"
         d="M 161.92743,74.892275 157.0625,75.9375"
         style="fill:none;stroke:#000000;stroke-width:3.02891368;stroke-linecap:butt;stroke-linejoin:miter;stroke-opacity:1;stroke-miterlimit:4;stroke-dasharray:none" />
      <path
         inkscape:connector-curvature="0"
         id="path1944"
         d="M 121.18042,222.41243 107.92217,211.62905"
         style="fill:none;stroke:#000000;stroke-width:3.02891368;stroke-linecap:butt;stroke-linejoin:miter;stroke-opacity:1;stroke-miterlimit:4;stroke-dasharray:none" />
      <path
         inkscape:connector-curvature="0"
         id="path1948"
         d="m 107.92217,211.62905 2.03293,-3.44715"
         style="fill:none;stroke:#000000;stroke-width:3.02891368;stroke-linecap:butt;stroke-linejoin:miter;stroke-opacity:1;stroke-miterlimit:4;stroke-dasharray:none" />
      <path
         sodipodi:nodetypes="ccccccccccccccccccccccccccccccccccccccccccccccccccccccccccccccccc"
         inkscape:connector-curvature="0"
         id="path1950"
         d="m 109.9551,208.1819 -2.29809,-2.65165 2.47487,-2.91681 -3.0052,-3.35876 2.65165,-2.47487 -2.20971,-3.53554 2.38648,-2.56326 -2.47487,-2.91681 -0.17678,-6.36397 -1.06066,-0.0884 0.17678,-4.15424 -11.225319,-11.93242 -0.08839,-18.03123 c -0.170653,-4.72841 0.228144,-9.10638 6.452349,-9.89949 l 1.85616,-0.17678 v -3.71231 l 2.82842,0.17678 -0.0884,-9.45755 c -0.2225,-2.54614 -1.4552,-3.5048 -2.82843,-4.24265 l -9.634331,-4.24264 c -4.725324,-1.80297 -6.58672,-5.43886 -7.159456,-9.89949 -0.04887,-4.45075 2.209009,-7.978802 7.159456,-10.429826 -3.632492,-2.681796 -7.28102,-5.354845 -7.336233,-9.987884 l 0.176777,-2.563262 c 0.898821,-4.637852 3.976236,-6.426773 6.982679,-8.308504 l -3.889087,-3.181981 c -4.313026,-4.266504 -3.523497,-10.44517 -0.53033,-14.230524 l 6.275572,-4.242641 C 92.486321,49.254683 90.963594,45.325047 95.017454,39.802101 110.81275,23.957307 141.48492,21.464497 163.43004,39.36016 c 2.27292,3.921196 1.64824,7.299091 0.17677,10.518213 l -4.24264,3.800699 4.24264,1.679378 c 10.39542,7.652158 7.42804,13.422231 1.23744,18.73833 l -2.91682,0.795495 c 11.43064,8.272122 10.26826,14.883624 0.26517,20.32932 6.59622,5.671875 14.71766,11.020205 0,21.213205 l -7.77818,3.62392 -3.09359,5.56847 0.17678,7.60139 2.03293,-0.0884 0.17678,3.97747 c 4.41704,0.43693 8.04532,1.87775 7.33623,8.83884 l 0.0884,19.00349 -10.34144,12.10921 0.0884,4.33102 h -1.06066 l -0.7955,3.8007 -1.85615,2.2981 2.12132,3.09359 -2.47487,3.18198 2.65165,2.65165 -2.20971,2.74004 2.12132,3.27037 -2.38649,2.91682 2.03293,2.91681 v 0.7955 l -1.94454,1.85615 -0.0884,2.03293 -5.56846,5.03814 -5.39169,4.50781 h -0.70711 l -1.06066,1.85615 -10.42982,0.26517 -2.65166,-2.20971"
         style="fill:none;stroke:#000000;stroke-width:3.02891368;stroke-linecap:butt;stroke-linejoin:miter;stroke-opacity:1;stroke-miterlimit:4;stroke-dasharray:none" />
    </g>
  </g>
</svg>
