<?xml version="1.0" encoding="UTF-8" standalone="no"?>
<!-- Created with Inkscape (http://www.inkscape.org/) -->

<svg
   xmlns:dc="http://purl.org/dc/elements/1.1/"
   xmlns:cc="http://creativecommons.org/ns#"
   xmlns:rdf="http://www.w3.org/1999/02/22-rdf-syntax-ns#"
   xmlns:svg="http://www.w3.org/2000/svg"
   xmlns="http://www.w3.org/2000/svg"
   xmlns:sodipodi="http://sodipodi.sourceforge.net/DTD/sodipodi-0.dtd"
   xmlns:inkscape="http://www.inkscape.org/namespaces/inkscape"
   width="256px"
   height="256px"
   viewBox="0 0 256 256"
   version="1.1"
   id="SVGRoot"
   inkscape:version="0.92.2 (5c3e80d, 2017-08-06)"
   sodipodi:docname="pool.svg">
  <sodipodi:namedview
     id="base"
     pagecolor="#ffffff"
     bordercolor="#666666"
     borderopacity="1.0"
     inkscape:pageopacity="0.0"
     inkscape:pageshadow="2"
     inkscape:zoom="2"
     inkscape:cx="117.61721"
     inkscape:cy="125.747"
     inkscape:document-units="px"
     inkscape:current-layer="layer1"
     showgrid="false"
     inkscape:window-width="1600"
     inkscape:window-height="900"
     inkscape:window-x="-8"
     inkscape:window-y="35"
     inkscape:window-maximized="1"
     inkscape:grid-bbox="true" />
  <defs
     id="defs3342" />
  <metadata
     id="metadata3345">
    <rdf:RDF>
      <cc:Work
         rdf:about="">
        <dc:format>image/svg+xml</dc:format>
        <dc:type
           rdf:resource="http://purl.org/dc/dcmitype/StillImage" />
        <dc:title></dc:title>
      </cc:Work>
    </rdf:RDF>
  </metadata>
  <g
     id="layer1"
     inkscape:groupmode="layer"
     inkscape:label="Layer 1">
    <path
       style="stroke-width:11.16929436"
       inkscape:connector-curvature="0"
       d="m 239.56854,229.84331 c -12.39791,0 -19.32287,-4.13264 -24.34905,-7.14835 -4.13265,-2.45725 -6.70159,-4.02094 -12.84469,-4.02094 -6.25481,0 -8.71204,1.452 -12.84469,4.02094 -5.13787,3.01571 -11.95114,7.14835 -24.34906,7.14835 -12.39791,0 -19.32288,-4.13264 -24.34905,-7.14835 -4.13265,-2.45725 -6.70159,-4.02094 -12.8447,-4.02094 -6.2548,0 -8.71205,1.452 -12.84468,4.02094 -5.13788,3.01571 -12.06285,7.14835 -24.460764,7.14835 -12.397916,0 -19.322879,-4.13264 -24.34906,-7.14835 -4.132639,-2.56894 -6.701578,-4.02094 -12.844689,-4.02094 -6.143111,0 -8.712049,1.452 -12.844688,4.02094 -5.137876,3.01571 -12.062837,7.14835 -24.460753,7.14835 v -22.33858 c 6.254805,0 8.712048,-1.45202 12.844687,-4.02095 5.137875,-3.01571 12.062838,-7.14835 24.460754,-7.14835 12.397916,0 19.322879,4.13264 24.349061,7.14835 4.132637,2.56893 6.589883,4.02095 12.844688,4.02095 6.254814,0 8.712054,-1.45202 12.844694,-4.02095 5.13787,-3.01571 12.06284,-7.14835 24.46075,-7.14835 12.39791,0 19.32288,4.13264 24.34905,7.14835 4.13265,2.45724 6.70159,4.02095 12.8447,4.02095 6.14311,0 8.71204,-1.45202 12.84469,-4.02095 5.02618,-3.01571 11.95115,-7.14835 24.34906,-7.14835 12.39791,0 19.32288,4.13264 24.34905,7.14835 4.13266,2.56893 6.5899,4.02095 12.84469,4.02095 z m 0,-50.26183 c -12.39791,0 -19.32287,-4.13264 -24.34905,-7.14834 -4.13265,-2.45726 -6.70159,-4.02094 -12.84469,-4.02094 -6.25481,0 -8.71204,1.452 -12.84469,4.02094 -5.02618,3.0157 -11.95114,7.14834 -24.34906,7.14834 -12.39791,0 -19.32288,-4.13264 -24.34905,-7.14834 -4.13265,-2.45726 -6.70159,-4.02094 -12.8447,-4.02094 -6.2548,0 -8.71205,1.452 -12.84468,4.02094 -5.02619,3.0157 -11.95115,7.14834 -24.349071,7.14834 -12.397917,0 -19.322879,-4.13264 -24.349062,-7.14834 -4.132638,-2.45726 -6.701575,-4.02094 -12.844687,-4.02094 -6.143112,0 -8.71205,1.452 -12.844689,4.02094 -5.249568,3.0157 -12.174529,7.14834 -24.572445,7.14834 V 157.2429 c 6.254805,0 8.712048,-1.45201 12.844687,-4.02095 5.026183,-3.01571 11.951145,-7.14835 24.34906,-7.14835 12.397918,0 19.322879,4.13264 24.349062,7.14835 4.132639,2.45725 6.701576,4.02095 12.844687,4.02095 6.254808,0 8.712048,-1.45201 12.844688,-4.02095 5.02619,-3.01571 11.95115,-7.14835 24.34907,-7.14835 12.39791,0 19.32287,4.13264 24.34905,7.14835 4.13264,2.45725 6.70159,4.02095 12.84469,4.02095 6.14311,0 8.71204,-1.45201 12.84468,-4.02095 5.02619,-3.01571 11.95116,-7.14835 24.34907,-7.14835 12.39791,0 19.32289,4.13264 24.34905,7.14835 4.13264,2.45725 6.70159,4.02095 12.84471,4.02095 v 22.33858 z M 90.681856,129.31967 c 6.254814,0 8.712054,-1.45201 12.844694,-4.02094 5.13787,-3.01572 12.06284,-7.14836 24.46075,-7.14836 12.39791,0 19.32288,4.13264 24.34905,7.14836 4.13265,2.45723 6.70159,4.02094 12.8447,4.02094 6.14311,0 8.71204,-1.45201 12.84469,-4.02094 1.34031,-0.78186 2.90402,-1.6754 4.57941,-2.56895 L 110.89829,51.134593 C 93.585876,33.822193 77.613781,28.684317 49.690547,28.796011 v 27.923232 c 20.328114,-0.111679 32.279258,4.356021 44.677179,16.753946 L 105.53702,84.642487 69.236811,120.94269 c 3.462481,1.34032 6.254804,3.01572 8.600357,4.35604 4.132637,2.56893 6.589883,4.02094 12.844688,4.02094 z"
       id="path3915" />
    <circle
       style="stroke-width:11.16929436"
       cx="178.13744"
       cy="56.719254"
       r="27.923235"
       id="circle3917" />
  </g>
</svg>
