<?xml version="1.0" encoding="UTF-8" standalone="no"?>
<!-- Created with Inkscape (http://www.inkscape.org/) -->

<svg
   xmlns:dc="http://purl.org/dc/elements/1.1/"
   xmlns:cc="http://creativecommons.org/ns#"
   xmlns:rdf="http://www.w3.org/1999/02/22-rdf-syntax-ns#"
   xmlns:svg="http://www.w3.org/2000/svg"
   xmlns="http://www.w3.org/2000/svg"
   xmlns:xlink="http://www.w3.org/1999/xlink"
   xmlns:sodipodi="http://sodipodi.sourceforge.net/DTD/sodipodi-0.dtd"
   xmlns:inkscape="http://www.inkscape.org/namespaces/inkscape"
   width="256px"
   height="256px"
   viewBox="0 0 256 256"
   version="1.1"
   id="SVGRoot"
   inkscape:version="0.92.2 (5c3e80d, 2017-08-06)"
   sodipodi:docname="pump.svg">
  <sodipodi:namedview
     id="base"
     pagecolor="#ffffff"
     bordercolor="#666666"
     borderopacity="1.0"
     inkscape:pageopacity="0.0"
     inkscape:pageshadow="2"
     inkscape:zoom="16"
     inkscape:cx="198.7542"
     inkscape:cy="193.73457"
     inkscape:document-units="px"
     inkscape:current-layer="g9266"
     showgrid="false"
     inkscape:window-width="1600"
     inkscape:window-height="837"
     inkscape:window-x="1912"
     inkscape:window-y="-8"
     inkscape:window-maximized="1"
     inkscape:grid-bbox="true" />
  <defs
     id="defs817">
    <clipPath
       id="b">
      <use
         overflow="visible"
         xlink:href="#a"
         id="use5" />
    </clipPath>
    <clipPath
       id="b-0">
      <use
         overflow="visible"
         xlink:href="#a"
         id="use5-0" />
    </clipPath>
    <clipPath
       id="b-09">
      <use
         overflow="visible"
         xlink:href="#a"
         id="use5-2" />
    </clipPath>
    <clipPath
       id="b-3">
      <use
         overflow="visible"
         xlink:href="#a"
         id="use5-29" />
    </clipPath>
    <clipPath
       id="b-00">
      <use
         overflow="visible"
         xlink:href="#a"
         id="use5-9" />
    </clipPath>
    <clipPath
       id="b-8">
      <use
         overflow="visible"
         xlink:href="#a"
         id="use5-7" />
    </clipPath>
    <clipPath
       id="b-9">
      <use
         overflow="visible"
         xlink:href="#a"
         id="use5-6" />
    </clipPath>
    <clipPath
       id="b-2">
      <use
         overflow="visible"
         xlink:href="#a"
         id="use5-1" />
    </clipPath>
    <clipPath
       id="b-7">
      <use
         overflow="visible"
         xlink:href="#a"
         id="use5-68" />
    </clipPath>
    <clipPath
       id="b-4">
      <use
         overflow="visible"
         xlink:href="#a"
         id="use5-24" />
    </clipPath>
    <clipPath
       id="b-24">
      <use
         overflow="visible"
         xlink:href="#a"
         id="use5-93" />
    </clipPath>
    <clipPath
       id="b-23">
      <use
         overflow="visible"
         xlink:href="#a"
         id="use5-60" />
    </clipPath>
    <clipPath
       id="b-001">
      <use
         overflow="visible"
         xlink:href="#a"
         id="use5-8" />
    </clipPath>
    <clipPath
       id="b-88">
      <use
         overflow="visible"
         xlink:href="#a"
         id="use5-07" />
    </clipPath>
    <clipPath
       id="b-85">
      <use
         overflow="visible"
         xlink:href="#a"
         id="use5-3" />
    </clipPath>
    <clipPath
       id="b-26">
      <use
         overflow="visible"
         xlink:href="#a"
         id="use5-20" />
    </clipPath>
  </defs>
  <metadata
     id="metadata820">
    <rdf:RDF>
      <cc:Work
         rdf:about="">
        <dc:format>image/svg+xml</dc:format>
        <dc:type
           rdf:resource="http://purl.org/dc/dcmitype/StillImage" />
        <dc:title></dc:title>
      </cc:Work>
    </rdf:RDF>
  </metadata>
  <g
     inkscape:groupmode="layer"
     id="layer2"
     inkscape:label="top"
     style="display:inline">
    <g
       id="g9266"
       transform="matrix(1.1047333,0,0,1.1047333,-0.70616692,-21.026681)">
      <path
         sodipodi:nodetypes="cccccccccccccccccccccccccccccccccccccccccccccccccccccc"
         inkscape:connector-curvature="0"
         id="path1408"
         d="m 42.270581,170.27484 -22.323408,0.13952 -11.0221821,-5.99941 -0.5580851,-55.94805 10.7431392,-6.69702 22.741972,-0.55809 0.139521,4.46468 h 2.650904 l 0.139522,-4.46468 h 36.554583 l 0.139516,-2.37186 -1.953291,-0.13952 -0.418567,-7.394628 -1.395218,0.139522 0.139526,-6.41798 v -1.813777 h 2.092816 l 1.813776,-1.953299 28.043785,0.139522 1.81377,1.674256 0.97665,0.697606 0.13953,1.674256 -0.69761,0.139521 0.27904,6.278459 -1.11616,-0.279043 0.41855,7.673675 h -1.95329 l 0.41856,7.39462 0.67484,-0.0442 -0.14798,-1.08522 7.59654,0.0493 0.0987,2.76238 6.84623,-0.007 -0.24519,-12.55691 5.12844,0.13952 9.17866,-5.580854 0.005,-12.1333 h 10.09784 v 12.522363 l 0.78925,101.073521 -10.78595,0.0564 -0.10571,-12.08578 -9.17866,-5.02277 -4.52756,0.23829 -0.35558,-11.67928 -6.84975,-0.16675 0.15149,3.75596 -7.69521,-0.0987 -0.39462,-2.17044 -3.74894,5.72208 -61.364321,0.19731 c -0.08227,-2.27373 0.07723,-4.89283 -1.775817,-4.63685 -1.769481,-0.3036 -1.134964,2.48364 -1.198483,4.37343 z"
         style="display:inline;fill:#009fff;stroke:#000000;stroke-width:3.23082399;stroke-linecap:butt;stroke-linejoin:miter;stroke-miterlimit:4;stroke-dasharray:none;stroke-opacity:1;fill-opacity:0.2914573" />
      <path
         sodipodi:nodetypes="cccccccccccccccccccccccccccccccc"
         inkscape:connector-curvature="0"
         id="path1410"
         d="m 150.0997,191.79172 7.41068,0.1057 0.006,-12.48003 27.42651,0.1973 c 9.29768,-2.16858 15.29255,-7.30972 19.33665,-14.20652 1.80141,-5.65474 3.55248,-11.33104 3.55163,-17.75817 h 3.94627 l -0.22678,13.86392 9.50041,-0.10966 c -0.0362,-20.46029 0.29617,-41.45476 0,-62.29329 l -9.50488,0.11558 0.23121,12.31512 -3.94627,0.2737 -0.33129,-10.28732 c 0.132,-3.34914 -2.32374,-9.691005 -4.99618,-11.690792 l -9.66833,-1.578499 c -1.97541,-1.314057 -6.3394,-3.681108 -7.10326,-5.722081 l -2.17042,-4.932841 v -5.524749 l -0.11315,-6.625874 8.65418,0 0.0566,-5.272271 -40.53331,0.03038 -0.029,5.159122 h 7.89251 v 5.722075 l -0.78925,5.524761 -1.38119,6.116699 -2.56507,2.367755 -2.56506,1.381194 h -2.56507 z"
         style="display:inline;fill:#009fff;fill-opacity:0.29145729;stroke:#000000;stroke-width:3.23082399;stroke-linecap:butt;stroke-linejoin:miter;stroke-miterlimit:4;stroke-dasharray:none;stroke-opacity:1" />
      <path
         sodipodi:nodetypes="cc"
         inkscape:connector-curvature="0"
         id="path1412"
         d="M 44.948912,155.34518 108.8783,154.95055"
         style="display:inline;fill:none;stroke:#000000;stroke-width:3.23082399;stroke-linecap:butt;stroke-linejoin:miter;stroke-miterlimit:4;stroke-dasharray:none;stroke-opacity:1" />
      <path
         sodipodi:nodetypes="cc"
         inkscape:connector-curvature="0"
         id="path1414"
         d="M 108.77964,150.41236 H 44.850255"
         style="display:inline;fill:none;stroke:#000000;stroke-width:3.23082399;stroke-linecap:butt;stroke-linejoin:miter;stroke-miterlimit:4;stroke-dasharray:none;stroke-opacity:1" />
      <path
         sodipodi:nodetypes="cc"
         inkscape:connector-curvature="0"
         id="path1416"
         d="M 44.850255,145.28222 H 108.38502"
         style="display:inline;fill:none;stroke:#000000;stroke-width:3.23082399;stroke-linecap:butt;stroke-linejoin:miter;stroke-miterlimit:4;stroke-dasharray:none;stroke-opacity:1" />
      <path
         sodipodi:nodetypes="cc"
         inkscape:connector-curvature="0"
         id="path1420"
         d="M 108.38502,140.54671 H 45.244881"
         style="display:inline;fill:none;stroke:#000000;stroke-width:3.23082399;stroke-linecap:butt;stroke-linejoin:miter;stroke-miterlimit:4;stroke-dasharray:none;stroke-opacity:1" />
      <path
         sodipodi:nodetypes="cc"
         inkscape:connector-curvature="0"
         id="path1422"
         d="M 45.047568,136.00852 H 108.38502"
         style="display:inline;fill:none;stroke:#000000;stroke-width:3.23082399;stroke-linecap:butt;stroke-linejoin:miter;stroke-miterlimit:4;stroke-dasharray:none;stroke-opacity:1" />
      <path
         sodipodi:nodetypes="cc"
         inkscape:connector-curvature="0"
         id="path1424"
         d="M 108.38502,130.87839 H 44.751599"
         style="display:inline;fill:none;stroke:#000000;stroke-width:3.23082399;stroke-linecap:butt;stroke-linejoin:miter;stroke-miterlimit:4;stroke-dasharray:none;stroke-opacity:1" />
      <path
         sodipodi:nodetypes="cc"
         inkscape:connector-curvature="0"
         id="path1426"
         d="m 45.146224,125.94556 63.041476,0.19731"
         style="display:inline;fill:none;stroke:#000000;stroke-width:3.23082399;stroke-linecap:butt;stroke-linejoin:miter;stroke-miterlimit:4;stroke-dasharray:none;stroke-opacity:1" />
      <path
         sodipodi:nodetypes="cc"
         inkscape:connector-curvature="0"
         id="path1428"
         d="M 108.38502,121.21005 H 45.096896"
         style="display:inline;fill:none;stroke:#000000;stroke-width:3.23082399;stroke-linecap:butt;stroke-linejoin:miter;stroke-miterlimit:4;stroke-dasharray:none;stroke-opacity:1" />
      <path
         sodipodi:nodetypes="cc"
         inkscape:connector-curvature="0"
         id="path1430"
         d="M 81.476063,98.83993 109.65937,99.2585"
         style="display:inline;fill:none;stroke:#000000;stroke-width:3.23082399;stroke-linecap:butt;stroke-linejoin:miter;stroke-miterlimit:4;stroke-dasharray:none;stroke-opacity:1" />
      <path
         sodipodi:nodetypes="cc"
         inkscape:connector-curvature="0"
         id="path1432"
         d="M 111.19411,91.584825 79.104205,91.305782"
         style="display:inline;fill:none;stroke:#000000;stroke-width:3.23082399;stroke-linecap:butt;stroke-linejoin:miter;stroke-miterlimit:4;stroke-dasharray:none;stroke-opacity:1" />
      <path
         sodipodi:nodetypes="cc"
         inkscape:connector-curvature="0"
         id="path1434"
         d="M 79.941329,83.213547 H 112.31027"
         style="display:inline;fill:none;stroke:#000000;stroke-width:3.23082399;stroke-linecap:butt;stroke-linejoin:miter;stroke-miterlimit:4;stroke-dasharray:none;stroke-opacity:1" />
      <path
         sodipodi:nodetypes="cc"
         inkscape:connector-curvature="0"
         id="path1436"
         d="M 45.244881,170.53827 V 101.08413"
         style="display:inline;fill:none;stroke:#000000;stroke-width:3.23082399;stroke-linecap:butt;stroke-linejoin:miter;stroke-miterlimit:4;stroke-dasharray:none;stroke-opacity:1" />
      <path
         sodipodi:nodetypes="cc"
         inkscape:connector-curvature="0"
         id="path1438"
         d="m 41.852017,101.21179 v 69.32648"
         style="display:inline;fill:none;stroke:#000000;stroke-width:3.23082399;stroke-linecap:butt;stroke-linejoin:miter;stroke-miterlimit:4;stroke-dasharray:none;stroke-opacity:1" />
      <path
         sodipodi:nodetypes="cc"
         inkscape:connector-curvature="0"
         id="path1442"
         d="m 125.14623,108.32738 v 54.97139"
         style="display:inline;fill:none;stroke:#000000;stroke-width:3.23082399;stroke-linecap:butt;stroke-linejoin:miter;stroke-miterlimit:4;stroke-dasharray:none;stroke-opacity:1" />
      <path
         sodipodi:nodetypes="cc"
         inkscape:connector-curvature="0"
         id="path1444"
         d="m 130.02948,95.90998 v 78.82954"
         style="display:inline;fill:none;stroke:#000000;stroke-width:3.23082399;stroke-linecap:butt;stroke-linejoin:miter;stroke-miterlimit:4;stroke-dasharray:none;stroke-opacity:1" />
      <path
         sodipodi:nodetypes="cc"
         inkscape:connector-curvature="0"
         id="path1446"
         d="M 139.20814,90.329133 V 179.76228"
         style="display:inline;fill:none;stroke:#000000;stroke-width:3.23082399;stroke-linecap:butt;stroke-linejoin:miter;stroke-miterlimit:4;stroke-dasharray:none;stroke-opacity:1" />
      <path
         sodipodi:nodetypes="ccccccccc"
         inkscape:connector-curvature="0"
         id="path1448"
         d="m 157.51038,191.8974 v 7.25125 H 50.769642 v -6.11671 h 79.714418 v -7.49788 l 8.37423,-4.83487 v 11.54351 z"
         style="display:inline;fill:none;stroke:#000000;stroke-width:3.23082399;stroke-linecap:butt;stroke-linejoin:miter;stroke-miterlimit:4;stroke-dasharray:none;stroke-opacity:1" />
      <path
         sodipodi:nodetypes="cc"
         inkscape:connector-curvature="0"
         id="path1469"
         d="M 211.777,147.65 V 111.54172"
         style="fill:none;stroke:#000000;stroke-width:3.23082399;stroke-linecap:butt;stroke-linejoin:miter;stroke-miterlimit:4;stroke-dasharray:none;stroke-opacity:1" />
      <path
         sodipodi:nodetypes="cc"
         inkscape:connector-curvature="0"
         id="path1473"
         d="M 207.83074,147.65 V 111.81542"
         style="fill:none;stroke:#000000;stroke-width:3.23082399;stroke-linecap:butt;stroke-linejoin:miter;stroke-miterlimit:4;stroke-dasharray:none;stroke-opacity:1" />
      <path
         sodipodi:nodetypes="cc"
         inkscape:connector-curvature="0"
         id="path1475"
         d="m 118.3,108.33541 v 58.45392"
         style="fill:none;stroke:#000000;stroke-width:3.23082399;stroke-linecap:butt;stroke-linejoin:miter;stroke-miterlimit:4;stroke-dasharray:none;stroke-opacity:1" />
      <path
         inkscape:connector-curvature="0"
         id="path1479"
         d="m 221.0506,99.11097 v 62.29329"
         style="fill:none;stroke:#000000;stroke-width:3.23082399;stroke-linecap:butt;stroke-linejoin:miter;stroke-miterlimit:4;stroke-dasharray:none;stroke-opacity:1" />
      <path
         style="fill:none;stroke:#000000;stroke-width:3.25870514;stroke-linecap:butt;stroke-linejoin:miter;stroke-miterlimit:4;stroke-dasharray:none;stroke-opacity:1"
         d="m 159.48948,65.370448 25.18737,0"
         id="path9290"
         inkscape:connector-curvature="0"
         sodipodi:nodetypes="cc" />
    </g>
    <path
       clip-path="url(#b)"
       d="M 9.01,14 H 2 v 2 h 7.01 v 3 L 13,15 9.01,11 Z"
       id="path8"
       inkscape:connector-curvature="0"
       sodipodi:nodetypes="cccccccc" />
    <path
       clip-path="url(#b-0)"
       d="M 9.01,14 H 2 v 2 h 7.01 v 3 L 13,15 9.01,11 Z"
       id="path8-5"
       inkscape:connector-curvature="0"
       sodipodi:nodetypes="cccccccc" />
    <path
       clip-path="url(#b-09)"
       d="M 9.01,14 H 2 v 2 h 7.01 v 3 L 13,15 9.01,11 Z"
       id="path8-4"
       inkscape:connector-curvature="0"
       sodipodi:nodetypes="cccccccc" />
    <path
       clip-path="url(#b-3)"
       d="M 9.01,14 H 2 v 2 h 7.01 v 3 L 13,15 9.01,11 Z"
       id="path8-9"
       inkscape:connector-curvature="0"
       sodipodi:nodetypes="cccccccc" />
    <path
       clip-path="url(#b-00)"
       d="M 9.01,14 H 2 v 2 h 7.01 v 3 L 13,15 9.01,11 Z"
       id="path8-8"
       inkscape:connector-curvature="0"
       sodipodi:nodetypes="cccccccc"
       transform="translate(4.3728814,2.8474576)" />
    <path
       clip-path="url(#b-8)"
       d="M 9.01,14 H 2 v 2 h 7.01 v 3 L 13,15 9.01,11 Z"
       id="path8-3"
       inkscape:connector-curvature="0"
       sodipodi:nodetypes="cccccccc"
       transform="translate(15933.254,107.38983)" />
    <path
       clip-path="url(#b-9)"
       d="M 9.01,14 H 2 v 2 h 7.01 v 3 L 13,15 9.01,11 Z"
       id="path8-7"
       inkscape:connector-curvature="0"
       sodipodi:nodetypes="cccccccc"
       transform="translate(16383.966,101.08475)" />
    <path
       clip-path="url(#b-88)"
       d="M 9.01,14 H 2 v 2 h 7.01 v 3 L 13,15 9.01,11 Z m 5.98,-1 V 10 H 22 V 8 H 14.99 V 5 L 11,9 Z"
       id="path8-85"
       inkscape:connector-curvature="0"
       transform="matrix(1.8135593,0,0,1.9588378,12670.144,337.3075)" />
    <path
       clip-path="url(#b-85)"
       d="M 9.01,14 H 2 v 2 h 7.01 v 3 L 13,15 9.01,11 Z m 5.98,-1 V 10 H 22 V 8 H 14.99 V 5 L 11,9 Z"
       id="path8-6"
       inkscape:connector-curvature="0"
       transform="matrix(1.8135593,0,0,1.9588378,12670.144,337.3075)" />
    <path
       clip-path="url(#b-26)"
       d="M 9.01,14 H 2 v 2 h 7.01 v 3 L 13,15 9.01,11 Z m 5.98,-1 V 10 H 22 V 8 H 14.99 V 5 L 11,9 Z"
       id="path8-61"
       inkscape:connector-curvature="0"
       transform="matrix(1.8135593,0,0,1.9588378,12670.144,337.3075)" />
  </g>
</svg>
