<?xml version="1.0" encoding="UTF-8" standalone="no"?>
<!-- Created with Inkscape (http://www.inkscape.org/) -->

<svg
   xmlns:dc="http://purl.org/dc/elements/1.1/"
   xmlns:cc="http://creativecommons.org/ns#"
   xmlns:rdf="http://www.w3.org/1999/02/22-rdf-syntax-ns#"
   xmlns:svg="http://www.w3.org/2000/svg"
   xmlns="http://www.w3.org/2000/svg"
   xmlns:sodipodi="http://sodipodi.sourceforge.net/DTD/sodipodi-0.dtd"
   xmlns:inkscape="http://www.inkscape.org/namespaces/inkscape"
   width="256px"
   height="256px"
   viewBox="0 0 256 256"
   version="1.1"
   id="SVGRoot"
   inkscape:version="0.92.2 (5c3e80d, 2017-08-06)"
   sodipodi:docname="stove.svg">
  <sodipodi:namedview
     id="base"
     pagecolor="#ffffff"
     bordercolor="#666666"
     borderopacity="1.0"
     inkscape:pageopacity="0.0"
     inkscape:pageshadow="2"
     inkscape:zoom="16"
     inkscape:cx="135.66937"
     inkscape:cy="227.14349"
     inkscape:document-units="px"
     inkscape:current-layer="g3340"
     showgrid="false"
     inkscape:window-width="1920"
     inkscape:window-height="1017"
     inkscape:window-x="-8"
     inkscape:window-y="35"
     inkscape:window-maximized="1"
     inkscape:grid-bbox="true" />
  <defs
     id="defs2061" />
  <metadata
     id="metadata2064">
    <rdf:RDF>
      <cc:Work
         rdf:about="">
        <dc:format>image/svg+xml</dc:format>
        <dc:type
           rdf:resource="http://purl.org/dc/dcmitype/StillImage" />
        <dc:title />
      </cc:Work>
    </rdf:RDF>
  </metadata>
  <g
     id="layer1"
     inkscape:groupmode="layer"
     inkscape:label="Layer 1" />
  <g
     inkscape:groupmode="layer"
     id="layer3"
     inkscape:label="Layer 2">
    <g
       id="g3340"
       transform="translate(2.5)">
      <path
         inkscape:connector-curvature="0"
         id="path3189"
         d="M 56.038212,247.6915 201.5,247.75 201.25,191 l 0.125,-5 0.125,-82.125 1.375,-0.875 -0.375,-13.125 -0.375,-2.25 0.75,-0.625 0.75,-0.875 -0.5,-6.625 -9.75,-24.625 -0.25,-6.875 0.125,-9.125 v -2.25 L 193.125,30.25 192.75,5.6249996 H 65.875 L 65.625,30.625 65.875,36.5 v 2.625 l -0.375,1 L 65.375,54 56,79.75 55.875,87 l 0.25,1.375 -1,0.25 -0.125,14.75 1.125,0.75 0.25,81.875 0.125,3.375 -0.25,1.5 z"
         style="fill:none;stroke:#000000;stroke-width:2.9;stroke-linecap:butt;stroke-linejoin:miter;stroke-opacity:1;stroke-miterlimit:4;stroke-dasharray:none" />
      <path
         inkscape:connector-curvature="0"
         id="path3191"
         d="M 116.25,11.5 V 24.25 L 142,24.5 142.0625,11.4375 Z"
         style="fill:none;stroke:#000000;stroke-width:2.9000001;stroke-linecap:butt;stroke-linejoin:miter;stroke-miterlimit:4;stroke-dasharray:none;stroke-opacity:1"
         sodipodi:nodetypes="ccccc" />
      <ellipse
         ry="10.25"
         rx="27.875"
         cy="60.5"
         cx="102.375"
         id="path3193"
         style="opacity:0;fill:#000000;stroke:#000000;stroke-width:2.9;stroke-miterlimit:4;stroke-dasharray:none;stroke-opacity:1" />
      <ellipse
         ry="4.75"
         rx="5.125"
         cy="18.75"
         cx="76.375"
         id="path3197"
         style="opacity:0;fill:#000000;stroke:#000000;stroke-width:2.9;stroke-miterlimit:4;stroke-dasharray:none;stroke-opacity:1" />
      <path
         inkscape:connector-curvature="0"
         id="path3199"
         d="M 56.125,104.125 201.5,103.875"
         style="fill:none;stroke:#000000;stroke-width:2.9;stroke-linecap:butt;stroke-linejoin:miter;stroke-opacity:1;stroke-miterlimit:4;stroke-dasharray:none" />
      <path
         inkscape:connector-curvature="0"
         id="path3201"
         d="m 56.25,190.875 144.7451,0.0712"
         style="fill:none;stroke:#000000;stroke-width:2.9;stroke-linecap:butt;stroke-linejoin:miter;stroke-opacity:1;stroke-miterlimit:4;stroke-dasharray:none" />
      <path
         inkscape:connector-curvature="0"
         id="path3203"
         d="M 56.391766,185.81965 201.52543,185.64288"
         style="fill:none;stroke:#000000;stroke-width:2.9;stroke-linecap:butt;stroke-linejoin:miter;stroke-opacity:1;stroke-miterlimit:4;stroke-dasharray:none" />
      <path
         sodipodi:nodetypes="ccccccccc"
         inkscape:connector-curvature="0"
         id="path3205"
         d="m 73.450717,168.31876 110.220273,0.17678 c 1.08792,-0.11942 1.49215,-0.7272 1.41421,-1.67938 l 0.26517,-55.4195 c -0.065,-0.90336 -0.27288,-1.68768 -1.32583,-1.76776 l -110.308658,0.17677 c -0.594358,0.31218 -1.372338,0.19592 -1.502602,1.59099 l -0.176777,55.33111 c -0.04993,1.05167 0.300148,1.70332 1.414214,1.59099 z"
         style="fill:none;stroke:#000000;stroke-width:2.9;stroke-linecap:butt;stroke-linejoin:miter;stroke-opacity:1;stroke-miterlimit:4;stroke-dasharray:none" />
      <path
         sodipodi:nodetypes="ccccccccc"
         inkscape:connector-curvature="0"
         id="path3207"
         d="m 58.33631,93.542217 c -0.863301,0.532024 -1.703415,1.105783 -1.414214,3.71231 0.08655,1.268736 0.444654,2.265919 1.237437,2.828423 23.899256,2.39619 48.300937,2.78266 72.655217,3.35876 23.05612,-0.34957 45.88471,-1.3059 68.23581,-3.535532 0.94534,-0.586721 1.23128,-1.83285 1.23744,-3.358757 -0.2982,-2.674853 -0.89624,-2.351368 -1.41422,-2.828427 -23.31543,2.227969 -47.15986,3.133443 -71.41778,3.005203 -23.56413,-0.186938 -46.950962,-0.669372 -69.11969,-3.18198 z"
         style="fill:none;stroke:#000000;stroke-width:2.9;stroke-linecap:butt;stroke-linejoin:miter;stroke-opacity:1;stroke-miterlimit:4;stroke-dasharray:none" />
      <path
         inkscape:connector-curvature="0"
         id="path3209"
         d="m 56.125,88.375 146,-0.75"
         style="fill:none;stroke:#000000;stroke-width:2.9;stroke-linecap:butt;stroke-linejoin:miter;stroke-opacity:1;stroke-miterlimit:4;stroke-dasharray:none"
         sodipodi:nodetypes="cc" />
      <path
         inkscape:connector-curvature="0"
         id="path3211"
         d="M 56,79.75 203.125,79.5"
         style="fill:none;stroke:#000000;stroke-width:2.9;stroke-linecap:butt;stroke-linejoin:miter;stroke-opacity:1;stroke-miterlimit:4;stroke-dasharray:none" />
      <path
         inkscape:connector-curvature="0"
         id="path3213"
         d="m 65.375,54 128,0.875"
         style="fill:none;stroke:#000000;stroke-width:2.9;stroke-linecap:butt;stroke-linejoin:miter;stroke-opacity:1;stroke-miterlimit:4;stroke-dasharray:none" />
      <path
         inkscape:connector-curvature="0"
         id="path3215"
         d="M 65.5,40.125 193,39.875"
         style="fill:none;stroke:#000000;stroke-width:2.9;stroke-linecap:butt;stroke-linejoin:miter;stroke-opacity:1;stroke-miterlimit:4;stroke-dasharray:none" />
      <path
         inkscape:connector-curvature="0"
         id="path3217"
         d="M 193.25,36.5 65.5,36.537689"
         style="fill:none;stroke:#000000;stroke-width:2.9;stroke-linecap:butt;stroke-linejoin:miter;stroke-opacity:1;stroke-miterlimit:4;stroke-dasharray:none"
         sodipodi:nodetypes="cc" />
      <path
         sodipodi:nodetypes="cccccccccccc"
         inkscape:connector-curvature="0"
         id="path3219"
         d="m 74.875,70.5 c -0.04565,1.742837 1.427907,2.550775 2.875,3.375 3.151865,1.451644 6.90043,1.829227 10.625,2.25 3.102757,0.358395 6.279575,0.494607 9.5,0.5 4.09453,-0.201166 8.2527,-0.243243 12.125,-1 3.66085,-0.746898 7.4728,-1.357814 10,-3.125 1.18838,-0.833333 1.07258,-1.666667 1,-2.5 -1.04815,-2.320732 -3.90332,-2.292352 -6,-3.25 -4.1025,-1.312077 -8.69285,-1.72978 -13.5,-1.75 -5.143517,-0.259257 -9.677654,0.334617 -14.25,0.875 -2.872735,0.463995 -5.733434,0.958081 -8.375,2 -2.011288,0.650245 -3.567983,1.519924 -4,2.625 z"
         style="fill:none;stroke:#000000;stroke-width:2.9;stroke-linecap:butt;stroke-linejoin:miter;stroke-opacity:1;stroke-miterlimit:4;stroke-dasharray:none" />
      <path
         sodipodi:nodetypes="cccccccccccc"
         inkscape:connector-curvature="0"
         id="path3219-8"
         d="m 138.13659,70.280128 c -0.0457,1.742837 1.42791,2.550775 2.875,3.375 3.15187,1.451644 6.90043,1.829227 10.625,2.25 3.10275,0.358395 6.27957,0.494607 9.5,0.5 4.09453,-0.201166 8.2527,-0.243243 12.125,-1 3.66085,-0.746898 7.4728,-1.357814 10,-3.125 1.18838,-0.833333 1.07258,-1.666667 1,-2.5 -1.04815,-2.320732 -3.90332,-2.292352 -6,-3.25 -4.1025,-1.312077 -8.69285,-1.72978 -13.5,-1.75 -5.14352,-0.259257 -9.67766,0.334617 -14.25,0.875 -2.87274,0.463995 -5.73343,0.958081 -8.375,2 -2.01129,0.650245 -3.56798,1.519924 -4,2.625 z"
         style="fill:none;stroke:#000000;stroke-width:2.9;stroke-linecap:butt;stroke-linejoin:miter;stroke-opacity:1;stroke-miterlimit:4;stroke-dasharray:none" />
      <path
         sodipodi:nodetypes="cccccccccccc"
         inkscape:connector-curvature="0"
         id="path3219-8-5"
         d="m 77.728694,60.199124 c -0.02859,1.090363 0.893336,1.595829 1.798672,2.111485 1.971887,0.908183 4.317079,1.144409 6.647262,1.407655 1.941157,0.224221 3.928655,0.309438 5.943435,0.312812 2.56164,-0.125855 5.163093,-0.152179 7.585702,-0.625624 2.290315,-0.467278 4.675165,-0.849483 6.256245,-1.955078 0.74348,-0.521354 0.67103,-1.042709 0.62563,-1.564062 -0.65576,-1.451908 -2.44202,-1.434151 -3.75375,-2.03328 -2.56662,-0.820868 -5.438465,-1.082193 -8.445937,-1.094843 -3.217913,-0.162198 -6.054584,0.209344 -8.915153,0.547422 -1.797257,0.290286 -3.586975,0.599399 -5.239606,1.251249 -1.258314,0.406809 -2.232218,0.950902 -2.5025,1.642264 z"
         style="fill:none;stroke:#000000;stroke-width:2.9;stroke-linecap:butt;stroke-linejoin:miter;stroke-opacity:1;stroke-miterlimit:4;stroke-dasharray:none" />
      <path
         sodipodi:nodetypes="cccccccccccc"
         inkscape:connector-curvature="0"
         id="path3219-8-5-6"
         d="m 115.30823,60.449124 c -0.0286,1.090363 0.89334,1.595829 1.79867,2.111485 1.97189,0.908183 4.31708,1.144409 6.64727,1.407655 1.94115,0.224221 3.92865,0.309438 5.94343,0.312812 2.56164,-0.125855 5.16309,-0.152179 7.5857,-0.625624 2.29032,-0.467278 4.67517,-0.849483 6.25625,-1.955078 0.74348,-0.521354 0.67103,-1.042709 0.62563,-1.564062 -0.65576,-1.451908 -2.44202,-1.434151 -3.75375,-2.03328 -2.56662,-0.820868 -5.43847,-1.082193 -8.44594,-1.094843 -3.21791,-0.162198 -6.05458,0.209344 -8.91515,0.547422 -1.79726,0.290286 -3.58698,0.599399 -5.23961,1.251249 -1.25831,0.406809 -2.23222,0.950902 -2.5025,1.642264 z"
         style="fill:none;stroke:#000000;stroke-width:2.9;stroke-linecap:butt;stroke-linejoin:miter;stroke-opacity:1;stroke-miterlimit:4;stroke-dasharray:none" />
      <path
         sodipodi:nodetypes="cccccccccccc"
         inkscape:connector-curvature="0"
         id="path3219-8-5-1"
         d="m 152.24573,60.074124 c -0.0286,1.090363 0.89334,1.595829 1.79867,2.111485 1.97189,0.908183 4.31708,1.144409 6.64727,1.407655 1.94115,0.224221 3.92865,0.309438 5.94343,0.312812 2.56164,-0.125855 5.16309,-0.152179 7.5857,-0.625624 2.29032,-0.467278 4.67517,-0.849483 6.25625,-1.955078 0.74348,-0.521354 0.67103,-1.042709 0.62563,-1.564062 -0.65576,-1.451908 -2.44202,-1.434151 -3.75375,-2.03328 -2.56662,-0.820868 -5.43847,-1.082193 -8.44594,-1.094843 -3.21791,-0.162198 -6.05458,0.209344 -8.91515,0.547422 -1.79726,0.290286 -3.58698,0.599399 -5.23961,1.251249 -1.25831,0.406809 -2.23222,0.950902 -2.5025,1.642264 z"
         style="fill:none;stroke:#000000;stroke-width:2.9;stroke-linecap:butt;stroke-linejoin:miter;stroke-opacity:1;stroke-miterlimit:4;stroke-dasharray:none" />
      <ellipse
         ry="3.860462"
         rx="3.8604622"
         cy="19.0625"
         cx="156.9375"
         id="path3272"
         style="opacity:1;fill:#000000;stroke:#000000;stroke-width:2.9;stroke-miterlimit:4;stroke-dasharray:none;stroke-opacity:1" />
      <ellipse
         ry="3.860462"
         rx="3.8604622"
         cy="18.625"
         cx="168.75"
         id="path3272-1"
         style="opacity:1;fill:#000000;stroke:#000000;stroke-width:2.9;stroke-miterlimit:4;stroke-dasharray:none;stroke-opacity:1" />
      <ellipse
         ry="3.860462"
         rx="3.8604622"
         cy="18.375"
         cx="181.375"
         id="path3272-1-5"
         style="opacity:1;fill:#000000;stroke:#000000;stroke-width:2.9;stroke-miterlimit:4;stroke-dasharray:none;stroke-opacity:1" />
      <ellipse
         ry="3.860462"
         rx="3.8604622"
         cy="18.625"
         cx="89.625"
         id="path3272-1-8"
         style="opacity:1;fill:#000000;stroke:#000000;stroke-width:2.9;stroke-miterlimit:4;stroke-dasharray:none;stroke-opacity:1" />
      <ellipse
         ry="3.860462"
         rx="3.8604622"
         cy="18.75"
         cx="76.5"
         id="path3272-1-1"
         style="opacity:1;fill:#000000;stroke:#000000;stroke-width:2.9;stroke-miterlimit:4;stroke-dasharray:none;stroke-opacity:1" />
    </g>
  </g>
</svg>
