<?xml version="1.0" encoding="UTF-8" standalone="no"?>
<!-- Created with Inkscape (http://www.inkscape.org/) -->

<svg
   xmlns:dc="http://purl.org/dc/elements/1.1/"
   xmlns:cc="http://creativecommons.org/ns#"
   xmlns:rdf="http://www.w3.org/1999/02/22-rdf-syntax-ns#"
   xmlns:svg="http://www.w3.org/2000/svg"
   xmlns="http://www.w3.org/2000/svg"
   xmlns:sodipodi="http://sodipodi.sourceforge.net/DTD/sodipodi-0.dtd"
   xmlns:inkscape="http://www.inkscape.org/namespaces/inkscape"
   width="32"
   height="32"
   viewBox="0 0 32 32"
   version="1.1"
   id="SVGRoot"
   inkscape:version="0.92.2 (5c3e80d, 2017-08-06)"
   sodipodi:docname="favicon.svg">
  <sodipodi:namedview
     id="base"
     pagecolor="#ffffff"
     bordercolor="#666666"
     borderopacity="1.0"
     inkscape:pageopacity="0.0"
     inkscape:pageshadow="2"
     inkscape:zoom="8"
     inkscape:cx="-4.8634902"
     inkscape:cy="3.601248"
     inkscape:document-units="px"
     inkscape:current-layer="g38"
     showgrid="false"
     inkscape:window-width="1600"
     inkscape:window-height="837"
     inkscape:window-x="1912"
     inkscape:window-y="-8"
     inkscape:window-maximized="1"
     inkscape:grid-bbox="true" />
  <defs
     id="defs3965" />
  <metadata
     id="metadata3968">
    <rdf:RDF>
      <cc:Work
         rdf:about="">
        <dc:format>image/svg+xml</dc:format>
        <dc:type
           rdf:resource="http://purl.org/dc/dcmitype/StillImage" />
        <dc:title></dc:title>
      </cc:Work>
    </rdf:RDF>
  </metadata>
  <g
     id="layer1"
     inkscape:groupmode="layer"
     inkscape:label="Layer 1"
     transform="translate(0,-96)">
    <g
       transform="matrix(0.00581611,0,0,-0.00581611,-19.959409,129.11136)"
       id="g38"
       style="display:inline;fill:#000000;stroke:none">
      <path
         d="m 5928.1577,5589.9805 c -213.0471,-18.4757 -473.4382,-74.48 -658.7719,-141.4542 -279.444,-101.0386 -542.7219,-245.9569 -758.6559,-416.8565 -121.8237,-96.4198 -278.2892,-246.5343 -372.9769,-356.2334 -315.8179,-366.6259 -527.133,-814.6601 -607.9639,-1290.4078 -23.6719,-136.8352 -30.6003,-221.7077 -33.4872,-393.762 -3.4641,-181.2922 1.7322,-282.9082 21.3626,-420.3208 17.8982,-125.8652 16.7435,-121.2463 32.9097,-121.2463 10.3925,0 13.2794,2.3095 10.9699,10.3925 -1.1548,5.1963 -6.9284,36.9513 -12.1247,69.861 -62.9326,407.6188 -29.4455,831.4037 96.4198,1218.8147 105.0801,323.3236 265.0099,612.0055 488.4496,883.3664 107.3897,129.9069 291.5686,304.2707 437.6416,414.5472 57.7364,43.3022 213.6247,145.4956 278.8667,182.4469 851.6114,485.5627 1913.3832,453.8078 2736.1264,-81.4084 185.9111,-120.6689 374.709,-280.5987 510.3895,-431.8679 49.6533,-56.0044 61.7779,-66.3969 75.6346,-66.3969 h 16.7436 l -31.1777,35.7965 c -215.3566,250.5759 -510.3895,479.7893 -814.0827,631.6359 -303.1159,151.8467 -633.9453,244.8022 -977.4766,273.6704 -81.4084,6.9284 -356.2335,6.3511 -438.7965,-0.5773 z"
         id="path2"
         inkscape:connector-curvature="0"
         style="stroke-width:34.38724508;stroke-miterlimit:4;stroke-dasharray:none" />
      <path
         d="m 6843.8565,4605.5754 c -389.1432,-47.3439 -721.1272,-318.7048 -843.5283,-688.7949 -40.9929,-124.1332 -49.0759,-176.0959 -49.0759,-323.901 0,-101.616 2.3094,-141.4541 10.3925,-181.8696 42.725,-211.8924 127.02,-375.8637 269.6289,-524.2461 152.424,-158.775 321.5915,-251.7306 542.7218,-299.0745 51.9627,-10.9698 79.0988,-13.2792 190.53,-13.2792 113.7406,-0.5775 137.99,1.1546 195.1489,12.7019 563.507,114.3181 922.6271,650.1115 809.4638,1207.8448 -26.5586,131.6389 -90.0687,280.0214 -166.2807,386.8337 -49.6532,70.4383 -173.2091,193.9942 -243.6474,244.2248 -69.2837,49.0759 -196.881,112.5859 -280.5987,139.1446 -132.7937,42.1476 -296.1876,57.7364 -434.7549,40.4155 z"
         id="path4"
         inkscape:connector-curvature="0"
         style="stroke-width:0.57736367" />
      <path
         d="m 8022.833,1070.9551 c -7.5057,-2.3095 -46.189,-34.0645 -86.0271,-70.4384 C 7261.8677,385.04706 6342.1275,159.87523 5463.38,394.86224 c -402.4225,107.967 -778.2863,316.39529 -1101.0325,610.85066 -54.2722,49.076 -74.4799,64.0874 -86.6046,64.0874 -15.5888,0 -15.5888,-0.5773 12.702,-29.4456 88.3367,-90.64593 282.3309,-246.53416 411.083,-330.82926 348.1502,-227.48128 736.1386,-365.4712 1170.8935,-417.43393 122.9784,-14.43409 442.8379,-14.43409 565.8163,0 446.8796,53.11746 827.9395,191.68473 1192.256,434.75484 125.8653,83.71773 213.0472,152.424 330.2521,259.23629 92.9555,84.87246 100.4612,95.26496 64.0872,84.87246 z"
         id="path36"
         inkscape:connector-curvature="0"
         style="stroke-width:0.57736367" />
      <path
         style="fill:none;stroke:#000000;stroke-width:171.93623352px;stroke-linecap:butt;stroke-linejoin:miter;stroke-opacity:1"
         d="m 3547.2651,2461.1785 -34.9246,239.0988 -5.373,263.2773 13.4325,247.1584 40.2976,263.2773 75.2221,290.1424 102.0871,265.9639 179.9958,327.7534 217.6067,295.5154 247.1584,252.5314 276.7098,217.6068 260.5909,161.1902 359.9915,158.5037 325.0669,88.6546 323.0309,58.1284 493.6662,-20.5174 325.0669,-53.73 265.9639,-69.8491 314.3209,-134.3252 284.7694,-161.1902 295.5154,-231.0393 282.2309,-269.8743"
         id="path834"
         inkscape:connector-curvature="0" />
      <path
         style="fill:none;stroke:#000000;stroke-width:171.93623352px;stroke-linecap:butt;stroke-linejoin:miter;stroke-opacity:1"
         d="m 4278.987,1064.9196 243.1546,-216.55953 326.7389,-212.76025 322.9397,-151.97151 345.7354,-113.97876 319.1403,-60.78857 341.9361,-15.19745 452.1154,34.19365 349.5347,94.98222 322.9397,121.57731 235.5559,136.77441 186.1652,132.97513 212.7602,151.97169 85.1299,104.81696"
         id="path836"
         inkscape:connector-curvature="0" />
    </g>
  </g>
</svg>
